<svg xmlns="http://www.w3.org/2000/svg" xmlns:v="https://svgstorm.com"
viewBox = "0 0 1024 1024"
width="1024"
height="1024">
<g fill="None" fill-opacity="0.0" stroke="#FEFEFE" stroke-opacity="1.00" stroke-width="0.3"><path d="
M 0.00 1024.00 
L 1024.00 1024.00
L 1024.00 0.00
L 0.00 0.00
L 0.00 1024.00
M 502.00 498.00 
C 501.21 502.87 502.59 508.10 502.00 513.00
C 511.98 504.86 523.07 496.15 537.00 497.00
C 537.00 504.67 537.00 512.33 537.00 520.00
C 537.37 523.77 537.36 528.29 537.00 532.00
C 536.18 540.48 537.00 549.47 537.00 558.00
C 537.32 561.33 539.45 566.69 537.00 570.00
C 537.00 570.50 537.00 571.00 537.00 571.00
C 537.00 579.86 536.15 589.19 537.00 598.00
C 537.37 601.77 537.36 606.29 537.00 610.00
C 537.00 618.87 536.17 628.18 537.00 637.00
C 537.33 640.51 538.11 644.14 538.00 648.00
C 537.94 650.29 537.32 652.35 537.00 654.00
C 536.34 665.48 527.57 669.79 517.00 670.00
C 513.98 670.37 509.60 670.65 506.00 671.00
C 503.93 673.15 494.78 672.94 494.00 670.00
C 493.94 670.16 493.00 670.00 493.00 670.00
C 473.10 670.00 458.47 663.57 457.00 642.00
C 451.02 608.65 456.00 571.88 456.00 537.00
C 456.00 533.33 456.00 529.67 456.00 526.00
C 456.00 522.11 455.38 515.63 456.00 512.00 C 456.62 508.37 454.03 500.00 457.00 498.00
C 461.68 494.86 471.03 502.77 475.25 504.75 C 479.46 506.74 485.15 513.56 487.00 518.00
C 489.13 511.70 489.62 504.09 490.00 497.00
C 489.67 478.98 479.56 464.40 468.25 450.75 C 456.93 437.10 439.60 431.54 424.00 426.00
C 423.65 426.04 423.18 426.99 423.00 427.00
C 441.74 436.06 459.62 451.57 470.00 470.00
C 473.73 474.59 478.12 478.80 477.00 485.00
C 467.79 485.10 454.47 486.98 446.00 482.00
C 406.59 473.27 378.75 437.46 378.00 397.00
C 427.81 384.41 488.32 409.81 496.00 464.00
C 496.17 464.24 497.73 464.25 498.00 464.00
C 507.01 447.27 511.06 429.23 527.25 416.25 C 543.44 403.27 556.84 393.54 578.02 390.02 C 599.21 386.50 627.19 386.95 648.00 393.00
C 643.21 454.22 581.11 506.11 519.00 488.00
C 531.93 456.82 563.28 436.62 592.00 423.00
C 552.91 426.92 512.09 458.24 502.00 498.00
M 57.00 952.00 
C 60.12 959.07 64.47 964.24 72.00 967.00
C 73.47 967.54 75.48 966.59 77.00 967.00
C 77.52 969.92 73.67 968.73 72.00 969.00
C 69.65 969.86 65.90 971.40 64.00 973.00
C 59.87 976.50 58.26 982.86 56.00 987.00
C 53.77 978.95 47.42 969.77 38.00 969.00
C 37.98 966.15 42.26 966.75 44.00 965.00
C 46.67 963.20 48.82 959.33 52.00 958.00
C 52.82 955.91 54.05 954.03 55.00 952.00
C 55.51 950.91 54.61 949.15 55.00 948.00
C 57.53 947.37 56.90 950.53 57.00 952.00 Z"/>
</g>
<g fill="None" fill-opacity="0.0" stroke="#6BA040" stroke-opacity="1.00" stroke-width="0.3"><path d="
M 498.00 464.00 
C 497.58 464.78 498.33 466.18 498.00 467.00
C 495.97 467.64 495.94 465.31 496.00 464.00
C 488.32 409.81 427.81 384.41 378.00 397.00
C 378.75 437.46 406.59 473.27 446.00 482.00
C 455.22 484.04 465.37 482.55 475.00 483.00
C 474.72 478.23 471.51 474.29 470.00 470.00
C 459.62 451.57 441.74 436.06 423.00 427.00
C 421.25 426.15 418.72 426.14 418.00 424.00
C 420.05 424.12 422.70 424.50 424.00 426.00
C 439.60 431.54 456.93 437.10 468.25 450.75 C 479.56 464.40 489.67 478.98 490.00 497.00
C 493.24 496.70 498.72 499.85 502.00 498.00
C 512.09 458.24 552.91 426.92 592.00 423.00
C 563.28 436.62 531.93 456.82 519.00 488.00
C 581.11 506.11 643.21 454.22 648.00 393.00
C 627.19 386.95 599.21 386.50 578.02 390.02 C 556.84 393.54 543.44 403.27 527.25 416.25 C 511.06 429.23 507.01 447.27 498.00 464.00 Z"/>
</g>
<g fill="None" fill-opacity="0.0" stroke="#B9DB93" stroke-opacity="1.00" stroke-width="0.3"><path d="
M 423.00 427.00 
C 423.18 426.99 423.65 426.04 424.00 426.00
C 422.70 424.50 420.05 424.12 418.00 424.00
C 418.72 426.14 421.25 426.15 423.00 427.00 Z"/>
</g>
<g fill="None" fill-opacity="0.0" stroke="#D2EFBF" stroke-opacity="1.00" stroke-width="0.3"><path d="
M 498.00 464.00 
C 497.73 464.25 496.17 464.24 496.00 464.00
C 495.94 465.31 495.97 467.64 498.00 467.00
C 498.33 466.18 497.58 464.78 498.00 464.00 Z"/>
</g>
<g fill="None" fill-opacity="0.0" stroke="#E2F2D6" stroke-opacity="1.00" stroke-width="0.3"><path d="
M 446.00 482.00 
C 454.47 486.98 467.79 485.10 477.00 485.00
C 478.12 478.80 473.73 474.59 470.00 470.00
C 471.51 474.29 474.72 478.23 475.00 483.00
C 465.37 482.55 455.22 484.04 446.00 482.00 Z"/>
</g>
<g fill="None" fill-opacity="0.0" stroke="#215834" stroke-opacity="1.00" stroke-width="0.3"><path d="
M 457.00 498.00 
C 456.37 507.28 457.84 516.74 457.00 526.00
C 471.14 528.25 483.86 538.87 491.00 551.00
C 499.87 533.41 518.26 522.49 537.00 520.00
C 537.00 512.33 537.00 504.67 537.00 497.00
C 523.07 496.15 511.98 504.86 502.00 513.00
C 502.59 508.10 501.21 502.87 502.00 498.00
C 498.72 499.85 493.24 496.70 490.00 497.00
C 489.62 504.09 489.13 511.70 487.00 518.00
C 485.15 513.56 479.46 506.74 475.25 504.75 C 471.03 502.77 461.68 494.86 457.00 498.00 Z"/>
</g>
<g fill="None" fill-opacity="0.0" stroke="#DDF2E5" stroke-opacity="1.00" stroke-width="0.3"><path d="
M 456.00 526.00 
C 456.00 525.96 457.00 526.00 457.00 526.00
C 457.84 516.74 456.37 507.28 457.00 498.00
C 454.03 500.00 456.62 508.37 456.00 512.00 C 455.38 515.63 456.00 522.11 456.00 526.00 Z"/>
</g>
<g fill="None" fill-opacity="0.0" stroke="#EDBF3B" stroke-opacity="1.00" stroke-width="0.3"><path d="
M 457.00 526.00 
C 457.32 529.60 456.99 533.38 457.00 537.00
C 457.00 537.50 457.00 538.00 457.00 538.00
C 459.42 538.28 460.82 538.98 463.00 540.00
C 465.95 541.38 468.45 542.99 471.00 545.00
C 473.62 547.07 476.04 549.36 478.00 552.00
C 484.32 560.50 483.95 573.10 491.03 578.97 C 498.11 584.85 497.87 567.16 498.00 566.00
C 500.06 547.58 519.97 533.92 537.00 532.00
C 537.00 528.00 537.00 524.00 537.00 520.00
C 518.26 522.49 499.87 533.41 491.00 551.00
C 483.86 538.87 471.14 528.25 457.00 526.00 Z"/>
</g>
<g fill="None" fill-opacity="0.0" stroke="#FBE8A1" stroke-opacity="1.00" stroke-width="0.3"><path d="
M 537.00 532.00 
C 537.36 528.29 537.37 523.77 537.00 520.00
C 537.00 524.00 537.00 528.00 537.00 532.00 Z"/>
</g>
<g fill="None" fill-opacity="0.0" stroke="#FFFBC6" stroke-opacity="1.00" stroke-width="0.3"><path d="
M 456.00 537.00 
C 456.00 536.96 457.00 537.00 457.00 537.00
C 456.99 533.38 457.32 529.60 457.00 526.00
C 457.00 526.00 456.00 525.96 456.00 526.00
C 456.00 529.67 456.00 533.33 456.00 537.00 Z"/>
</g>
<g fill="None" fill-opacity="0.0" stroke="#215732" stroke-opacity="1.00" stroke-width="0.3"><path d="
M 498.00 566.00 
C 497.96 568.40 500.11 572.84 499.00 576.00
C 507.41 568.48 516.69 562.16 528.00 560.00
C 531.06 559.48 533.92 559.36 537.00 559.00
C 537.00 558.50 537.00 558.00 537.00 558.00
C 537.00 549.47 536.18 540.48 537.00 532.00
C 519.97 533.92 500.06 547.58 498.00 566.00 Z"/>
</g>
<g fill="None" fill-opacity="0.0" stroke="#E8F5E8" stroke-opacity="1.00" stroke-width="0.3"><path d="
M 457.00 642.00 
C 456.51 634.75 456.99 627.27 457.00 620.00
C 457.00 619.50 457.00 619.00 457.00 619.00
C 454.53 615.66 456.66 610.66 457.00 607.00
C 457.85 597.91 457.88 587.09 457.00 578.00
C 456.68 574.67 454.55 569.31 457.00 566.00
C 457.24 565.68 457.00 565.00 457.00 565.00
C 457.00 556.00 456.98 547.00 457.00 538.00
C 457.00 538.00 457.00 537.50 457.00 537.00
C 457.00 537.00 456.00 536.96 456.00 537.00
C 456.00 571.88 451.02 608.65 457.00 642.00 Z"/>
</g>
<g fill="None" fill-opacity="0.0" stroke="#1E5533" stroke-opacity="1.00" stroke-width="0.3"><path d="
M 457.00 565.00 
C 470.46 562.77 482.36 580.39 491.00 588.00
C 493.45 585.02 493.46 582.74 495.00 580.00
C 482.39 582.93 485.12 566.69 481.03 558.98 C 476.93 551.26 469.35 545.54 463.00 540.00
C 460.82 538.98 459.42 538.28 457.00 538.00
C 456.98 547.00 457.00 556.00 457.00 565.00 Z"/>
</g>
<g fill="None" fill-opacity="0.0" stroke="#3A5618" stroke-opacity="1.00" stroke-width="0.3"><path d="
M 457.00 565.00 
C 457.00 565.00 457.24 565.68 457.00 566.00
C 465.03 568.31 472.32 571.72 479.00 577.00
C 481.89 579.28 484.97 581.95 487.00 585.00
C 488.42 587.13 488.73 591.09 492.00 591.00
C 497.07 574.82 513.81 565.80 528.00 560.00
C 516.69 562.16 507.41 568.48 499.00 576.00
C 500.11 572.84 497.96 568.40 498.00 566.00
C 497.87 567.16 498.11 584.85 491.03 578.97 C 483.95 573.10 484.32 560.50 478.00 552.00
C 476.09 549.81 473.10 546.94 471.00 545.00
C 468.45 542.99 465.95 541.38 463.00 540.00
C 469.35 545.54 476.93 551.26 481.03 558.98 C 485.12 566.69 482.39 582.93 495.00 580.00
C 493.46 582.74 493.45 585.02 491.00 588.00
C 482.36 580.39 470.46 562.77 457.00 565.00 Z"/>
</g>
<g fill="None" fill-opacity="0.0" stroke="#6C7525" stroke-opacity="1.00" stroke-width="0.3"><path d="
M 478.00 552.00 
C 476.04 549.36 473.62 547.07 471.00 545.00
C 473.10 546.94 476.09 549.81 478.00 552.00 Z"/>
</g>
<g fill="None" fill-opacity="0.0" stroke="#FBE9A1" stroke-opacity="1.00" stroke-width="0.3"><path d="
M 537.00 559.00 
C 537.00 562.67 537.00 566.33 537.00 570.00
C 539.45 566.69 537.32 561.33 537.00 558.00
C 537.00 558.00 537.00 558.50 537.00 559.00 Z"/>
</g>
<g fill="None" fill-opacity="0.0" stroke="#ECBF3B" stroke-opacity="1.00" stroke-width="0.3"><path d="
M 528.00 560.00 
C 513.81 565.80 497.07 574.82 492.00 591.00
C 488.73 591.09 488.42 587.13 487.00 585.00
C 485.05 582.50 481.32 579.14 479.00 577.00
C 472.32 571.72 465.03 568.31 457.00 566.00
C 457.00 570.00 457.00 574.00 457.00 578.00
C 462.31 580.26 470.92 583.37 474.25 588.75 C 477.58 594.13 485.95 598.73 484.93 606.07 C 483.90 613.42 492.05 624.34 496.92 615.92 C 501.79 607.49 497.06 600.41 502.75 593.75 C 508.44 587.10 509.30 583.65 516.23 579.23 C 523.16 574.81 528.59 571.10 537.00 571.00
C 537.00 571.00 537.00 570.50 537.00 570.00
C 537.00 566.33 537.00 562.67 537.00 559.00
C 533.92 559.36 531.06 559.48 528.00 560.00 Z"/>
</g>
<g fill="None" fill-opacity="0.0" stroke="#FEFAC9" stroke-opacity="1.00" stroke-width="0.3"><path d="
M 457.00 578.00 
C 457.00 574.00 457.00 570.00 457.00 566.00
C 454.55 569.31 456.68 574.67 457.00 578.00 Z"/>
</g>
<g fill="None" fill-opacity="0.0" stroke="#255630" stroke-opacity="1.00" stroke-width="0.3"><path d="
M 457.00 578.00 
C 457.88 587.09 457.85 597.91 457.00 607.00
C 456.43 606.07 459.68 608.23 459.00 608.00
C 471.78 612.35 483.60 620.00 491.00 632.00
C 497.95 613.19 517.94 600.61 537.00 598.00
C 536.15 589.19 537.00 579.86 537.00 571.00
C 528.59 571.10 523.16 574.81 516.23 579.23 C 509.30 583.65 508.44 587.10 502.75 593.75 C 497.06 600.41 501.79 607.49 496.92 615.92 C 492.05 624.34 483.90 613.42 484.93 606.07 C 485.95 598.73 477.58 594.13 474.25 588.75 C 470.92 583.37 462.31 580.26 457.00 578.00 Z"/>
</g>
<g fill="None" fill-opacity="0.0" stroke="#90943B" stroke-opacity="1.00" stroke-width="0.3"><path d="
M 487.00 585.00 
C 484.97 581.95 481.89 579.28 479.00 577.00
C 481.32 579.14 485.05 582.50 487.00 585.00 Z"/>
</g>
<g fill="None" fill-opacity="0.0" stroke="#EEBF3C" stroke-opacity="1.00" stroke-width="0.3"><path d="
M 459.00 608.00 
C 458.64 610.56 455.62 614.32 458.00 619.00
C 462.25 620.67 466.35 623.29 470.00 626.00
C 472.71 628.02 474.87 630.51 477.00 633.00
C 481.38 638.13 484.92 642.82 485.00 650.00 C 485.08 657.18 491.57 662.77 497.00 655.00
C 496.73 652.04 497.64 649.22 498.00 647.00
C 499.07 627.34 519.66 613.10 537.00 609.00
C 537.00 605.33 537.00 601.67 537.00 598.00
C 517.94 600.61 497.95 613.19 491.00 632.00
C 483.60 620.00 471.78 612.35 459.00 608.00 Z"/>
</g>
<g fill="None" fill-opacity="0.0" stroke="#F8E8A4" stroke-opacity="1.00" stroke-width="0.3"><path d="
M 537.00 609.00 
C 537.00 609.50 537.00 610.00 537.00 610.00
C 537.36 606.29 537.37 601.77 537.00 598.00
C 537.00 601.67 537.00 605.33 537.00 609.00 Z"/>
</g>
<g fill="None" fill-opacity="0.0" stroke="#ECECB7" stroke-opacity="1.00" stroke-width="0.3"><path d="
M 457.00 619.00 
C 457.25 618.75 458.00 619.00 458.00 619.00
C 455.62 614.32 458.64 610.56 459.00 608.00
C 459.68 608.23 456.43 606.07 457.00 607.00
C 456.66 610.66 454.53 615.66 457.00 619.00 Z"/>
</g>
<g fill="None" fill-opacity="0.0" stroke="#205531" stroke-opacity="1.00" stroke-width="0.3"><path d="
M 498.00 647.00 
C 497.86 649.65 498.24 652.36 498.00 655.00
C 499.13 657.72 507.65 648.50 512.08 645.08 C 516.51 641.66 526.95 638.40 532.00 638.00
C 533.13 637.70 535.78 636.38 537.00 637.00
C 536.17 628.18 537.00 618.87 537.00 610.00
C 537.00 610.00 537.00 609.50 537.00 609.00
C 519.66 613.10 499.07 627.34 498.00 647.00 Z"/>
</g>
<g fill="None" fill-opacity="0.0" stroke="#38561C" stroke-opacity="1.00" stroke-width="0.3"><path d="
M 457.00 620.00 
C 466.18 623.40 470.87 629.16 476.92 636.08 C 482.98 642.99 481.61 653.89 488.00 661.00
C 490.82 659.70 493.96 659.59 497.00 659.00
C 497.23 663.15 492.41 665.63 493.00 670.00
C 493.00 670.00 493.94 670.16 494.00 670.00
C 495.52 665.95 497.55 661.68 500.00 658.00
C 503.00 653.49 507.65 649.81 512.00 647.00
C 518.30 642.93 524.83 639.93 532.00 638.00
C 526.95 638.40 516.51 641.66 512.08 645.08 C 507.65 648.50 499.13 657.72 498.00 655.00
C 497.93 654.82 497.00 655.00 497.00 655.00
C 491.57 662.77 485.08 657.18 485.00 650.00 C 484.92 642.82 481.38 638.13 477.00 633.00
C 474.85 630.85 472.21 627.93 470.00 626.00
C 466.35 623.29 462.25 620.67 458.00 619.00
C 458.00 619.00 457.25 618.75 457.00 619.00
C 457.00 619.00 457.00 619.50 457.00 620.00 Z"/>
</g>
<g fill="None" fill-opacity="0.0" stroke="#205536" stroke-opacity="1.00" stroke-width="0.3"><path d="
M 457.00 642.00 
C 458.47 663.57 473.10 670.00 493.00 670.00
C 492.41 665.63 497.23 663.15 497.00 659.00
C 493.96 659.59 490.82 659.70 488.00 661.00
C 481.61 653.89 482.98 642.99 476.92 636.08 C 470.87 629.16 466.18 623.40 457.00 620.00
C 456.99 627.27 456.51 634.75 457.00 642.00 Z"/>
</g>
<g fill="None" fill-opacity="0.0" stroke="#676E1B" stroke-opacity="1.00" stroke-width="0.3"><path d="
M 477.00 633.00 
C 474.87 630.51 472.71 628.02 470.00 626.00
C 472.21 627.93 474.85 630.85 477.00 633.00 Z"/>
</g>
<g fill="None" fill-opacity="0.0" stroke="#EEC13D" stroke-opacity="1.00" stroke-width="0.3"><path d="
M 532.00 638.00 
C 524.83 639.93 518.30 642.93 512.00 647.00
C 508.38 649.95 502.95 654.23 500.00 658.00
C 497.55 661.68 495.52 665.95 494.00 670.00
C 497.98 670.27 502.03 669.64 506.00 670.00
C 510.62 667.89 512.58 658.57 518.25 656.25 C 523.91 653.93 530.42 648.13 537.00 648.00
C 537.50 647.99 538.00 648.00 538.00 648.00
C 538.11 644.14 537.33 640.51 537.00 637.00
C 535.78 636.38 533.13 637.70 532.00 638.00 Z"/>
</g>
<g fill="None" fill-opacity="0.0" stroke="#7E7C21" stroke-opacity="1.00" stroke-width="0.3"><path d="
M 497.00 655.00 
C 497.00 655.00 497.93 654.82 498.00 655.00
C 498.24 652.36 497.86 649.65 498.00 647.00
C 497.64 649.22 496.73 652.04 497.00 655.00 Z"/>
</g>
<g fill="None" fill-opacity="0.0" stroke="#848930" stroke-opacity="1.00" stroke-width="0.3"><path d="
M 500.00 658.00 
C 502.95 654.23 508.38 649.95 512.00 647.00
C 507.65 649.81 503.00 653.49 500.00 658.00 Z"/>
</g>
<g fill="None" fill-opacity="0.0" stroke="#205330" stroke-opacity="1.00" stroke-width="0.3"><path d="
M 506.00 670.00 
C 509.62 669.67 513.37 670.07 517.00 670.00
C 527.57 669.79 536.34 665.48 537.00 654.00
C 537.11 652.09 536.61 649.87 537.00 648.00
C 530.42 648.13 523.91 653.93 518.25 656.25 C 512.58 658.57 510.62 667.89 506.00 670.00 Z"/>
</g>
<g fill="None" fill-opacity="0.0" stroke="#86A089" stroke-opacity="1.00" stroke-width="0.3"><path d="
M 537.00 654.00 
C 537.32 652.35 537.94 650.29 538.00 648.00
C 538.00 648.00 537.50 647.99 537.00 648.00
C 536.61 649.87 537.11 652.09 537.00 654.00 Z"/>
</g>
<g fill="None" fill-opacity="0.0" stroke="#F8F0C4" stroke-opacity="1.00" stroke-width="0.3"><path d="
M 506.00 671.00 
C 506.25 670.74 506.00 670.00 506.00 670.00
C 502.03 669.64 497.98 670.27 494.00 670.00
C 494.78 672.94 503.93 673.15 506.00 671.00 Z"/>
</g>
<g fill="None" fill-opacity="0.0" stroke="#93B09C" stroke-opacity="1.00" stroke-width="0.3"><path d="
M 506.00 671.00 
C 509.60 670.65 513.98 670.37 517.00 670.00
C 513.37 670.07 509.62 669.67 506.00 670.00
C 506.00 670.00 506.25 670.74 506.00 671.00 Z"/>
</g>
<g fill="None" fill-opacity="0.0" stroke="#CAC0E7" stroke-opacity="1.00" stroke-width="0.3"><path d="
M 55.00 952.00 
C 55.27 951.75 56.79 951.75 57.00 952.00
C 56.90 950.53 57.53 947.37 55.00 948.00
C 54.61 949.15 55.51 950.91 55.00 952.00 Z"/>
</g>
<g fill="None" fill-opacity="0.0" stroke="#8694F6" stroke-opacity="1.00" stroke-width="0.3"><path d="
M 52.00 958.00 
C 51.83 958.43 52.00 959.00 52.00 959.00
C 54.87 959.92 64.32 968.27 64.00 973.00
C 65.90 971.40 69.65 969.86 72.00 969.00
C 72.25 968.73 72.25 967.27 72.00 967.00
C 64.47 964.24 60.12 959.07 57.00 952.00
C 56.79 951.75 55.27 951.75 55.00 952.00
C 54.05 954.03 52.82 955.91 52.00 958.00 Z"/>
</g>
<g fill="None" fill-opacity="0.0" stroke="#CCF0FF" stroke-opacity="1.00" stroke-width="0.3"><path d="
M 44.00 965.00 
C 46.98 963.42 49.27 960.91 52.00 959.00
C 52.00 959.00 51.83 958.43 52.00 958.00
C 48.82 959.33 46.67 963.20 44.00 965.00 Z"/>
</g>
<g fill="None" fill-opacity="0.0" stroke="#368CF4" stroke-opacity="1.00" stroke-width="0.3"><path d="
M 44.00 965.00 
C 42.26 966.75 37.98 966.15 38.00 969.00
C 47.42 969.77 53.77 978.95 56.00 987.00
C 58.26 982.86 59.87 976.50 64.00 973.00
C 64.32 968.27 54.87 959.92 52.00 959.00
C 49.27 960.91 46.98 963.42 44.00 965.00 Z"/>
</g>
<g fill="None" fill-opacity="0.0" stroke="#D2CAEE" stroke-opacity="1.00" stroke-width="0.3"><path d="
M 72.00 969.00 
C 73.67 968.73 77.52 969.92 77.00 967.00
C 75.48 966.59 73.47 967.54 72.00 967.00
C 72.25 967.27 72.25 968.73 72.00 969.00 Z"/>
</g>
<g fill="#FEFEFE" fill-opacity="1.00" stroke="None">
<path d="
M 0.00 1024.00 
L 1024.00 1024.00
L 1024.00 0.00
L 0.00 0.00
L 0.00 1024.00
M 502.00 498.00 
C 501.21 502.87 502.59 508.10 502.00 513.00
C 511.98 504.86 523.07 496.15 537.00 497.00
C 537.00 504.67 537.00 512.33 537.00 520.00
C 537.37 523.77 537.36 528.29 537.00 532.00
C 536.18 540.48 537.00 549.47 537.00 558.00
C 537.32 561.33 539.45 566.69 537.00 570.00
C 537.00 570.50 537.00 571.00 537.00 571.00
C 537.00 579.86 536.15 589.19 537.00 598.00
C 537.37 601.77 537.36 606.29 537.00 610.00
C 537.00 618.87 536.17 628.18 537.00 637.00
C 537.33 640.51 538.11 644.14 538.00 648.00
C 537.94 650.29 537.32 652.35 537.00 654.00
C 536.34 665.48 527.57 669.79 517.00 670.00
C 513.98 670.37 509.60 670.65 506.00 671.00
C 503.93 673.15 494.78 672.94 494.00 670.00
C 493.94 670.16 493.00 670.00 493.00 670.00
C 473.10 670.00 458.47 663.57 457.00 642.00
C 451.02 608.65 456.00 571.88 456.00 537.00
C 456.00 533.33 456.00 529.67 456.00 526.00
C 456.00 522.11 455.38 515.63 456.00 512.00 C 456.62 508.37 454.03 500.00 457.00 498.00
C 461.68 494.86 471.03 502.77 475.25 504.75 C 479.46 506.74 485.15 513.56 487.00 518.00
C 489.13 511.70 489.62 504.09 490.00 497.00
C 489.67 478.98 479.56 464.40 468.25 450.75 C 456.93 437.10 439.60 431.54 424.00 426.00
C 423.65 426.04 423.18 426.99 423.00 427.00
C 441.74 436.06 459.62 451.57 470.00 470.00
C 473.73 474.59 478.12 478.80 477.00 485.00
C 467.79 485.10 454.47 486.98 446.00 482.00
C 406.59 473.27 378.75 437.46 378.00 397.00
C 427.81 384.41 488.32 409.81 496.00 464.00
C 496.17 464.24 497.73 464.25 498.00 464.00
C 507.01 447.27 511.06 429.23 527.25 416.25 C 543.44 403.27 556.84 393.54 578.02 390.02 C 599.21 386.50 627.19 386.95 648.00 393.00
C 643.21 454.22 581.11 506.11 519.00 488.00
C 531.93 456.82 563.28 436.62 592.00 423.00
C 552.91 426.92 512.09 458.24 502.00 498.00
M 57.00 952.00 
C 60.12 959.07 64.47 964.24 72.00 967.00
C 73.47 967.54 75.48 966.59 77.00 967.00
C 77.52 969.92 73.67 968.73 72.00 969.00
C 69.65 969.86 65.90 971.40 64.00 973.00
C 59.87 976.50 58.26 982.86 56.00 987.00
C 53.77 978.95 47.42 969.77 38.00 969.00
C 37.98 966.15 42.26 966.75 44.00 965.00
C 46.67 963.20 48.82 959.33 52.00 958.00
C 52.82 955.91 54.05 954.03 55.00 952.00
C 55.51 950.91 54.61 949.15 55.00 948.00
C 57.53 947.37 56.90 950.53 57.00 952.00 Z"/>
</g>
<g fill="#6BA040" fill-opacity="1.00" stroke="None">
<path d="
M 498.00 464.00 
C 497.58 464.78 498.33 466.18 498.00 467.00
C 495.97 467.64 495.94 465.31 496.00 464.00
C 488.32 409.81 427.81 384.41 378.00 397.00
C 378.75 437.46 406.59 473.27 446.00 482.00
C 455.22 484.04 465.37 482.55 475.00 483.00
C 474.72 478.23 471.51 474.29 470.00 470.00
C 459.62 451.57 441.74 436.06 423.00 427.00
C 421.25 426.15 418.72 426.14 418.00 424.00
C 420.05 424.12 422.70 424.50 424.00 426.00
C 439.60 431.54 456.93 437.10 468.25 450.75 C 479.56 464.40 489.67 478.98 490.00 497.00
C 493.24 496.70 498.72 499.85 502.00 498.00
C 512.09 458.24 552.91 426.92 592.00 423.00
C 563.28 436.62 531.93 456.82 519.00 488.00
C 581.11 506.11 643.21 454.22 648.00 393.00
C 627.19 386.95 599.21 386.50 578.02 390.02 C 556.84 393.54 543.44 403.27 527.25 416.25 C 511.06 429.23 507.01 447.27 498.00 464.00 Z"/>
</g>
<g fill="#B9DB93" fill-opacity="1.00" stroke="None">
<path d="
M 423.00 427.00 
C 423.18 426.99 423.65 426.04 424.00 426.00
C 422.70 424.50 420.05 424.12 418.00 424.00
C 418.72 426.14 421.25 426.15 423.00 427.00 Z"/>
</g>
<g fill="#D2EFBF" fill-opacity="1.00" stroke="None">
<path d="
M 498.00 464.00 
C 497.73 464.25 496.17 464.24 496.00 464.00
C 495.94 465.31 495.97 467.64 498.00 467.00
C 498.33 466.18 497.58 464.78 498.00 464.00 Z"/>
</g>
<g fill="#E2F2D6" fill-opacity="1.00" stroke="None">
<path d="
M 446.00 482.00 
C 454.47 486.98 467.79 485.10 477.00 485.00
C 478.12 478.80 473.73 474.59 470.00 470.00
C 471.51 474.29 474.72 478.23 475.00 483.00
C 465.37 482.55 455.22 484.04 446.00 482.00 Z"/>
</g>
<g fill="#215834" fill-opacity="1.00" stroke="None">
<path d="
M 457.00 498.00 
C 456.37 507.28 457.84 516.74 457.00 526.00
C 471.14 528.25 483.86 538.87 491.00 551.00
C 499.87 533.41 518.26 522.49 537.00 520.00
C 537.00 512.33 537.00 504.67 537.00 497.00
C 523.07 496.15 511.98 504.86 502.00 513.00
C 502.59 508.10 501.21 502.87 502.00 498.00
C 498.72 499.85 493.24 496.70 490.00 497.00
C 489.62 504.09 489.13 511.70 487.00 518.00
C 485.15 513.56 479.46 506.74 475.25 504.75 C 471.03 502.77 461.68 494.86 457.00 498.00 Z"/>
</g>
<g fill="#DDF2E5" fill-opacity="1.00" stroke="None">
<path d="
M 456.00 526.00 
C 456.00 525.96 457.00 526.00 457.00 526.00
C 457.84 516.74 456.37 507.28 457.00 498.00
C 454.03 500.00 456.62 508.37 456.00 512.00 C 455.38 515.63 456.00 522.11 456.00 526.00 Z"/>
</g>
<g fill="#EDBF3B" fill-opacity="1.00" stroke="None">
<path d="
M 457.00 526.00 
C 457.32 529.60 456.99 533.38 457.00 537.00
C 457.00 537.50 457.00 538.00 457.00 538.00
C 459.42 538.28 460.82 538.98 463.00 540.00
C 465.95 541.38 468.45 542.99 471.00 545.00
C 473.62 547.07 476.04 549.36 478.00 552.00
C 484.32 560.50 483.95 573.10 491.03 578.97 C 498.11 584.85 497.87 567.16 498.00 566.00
C 500.06 547.58 519.97 533.92 537.00 532.00
C 537.00 528.00 537.00 524.00 537.00 520.00
C 518.26 522.49 499.87 533.41 491.00 551.00
C 483.86 538.87 471.14 528.25 457.00 526.00 Z"/>
</g>
<g fill="#FBE8A1" fill-opacity="1.00" stroke="None">
<path d="
M 537.00 532.00 
C 537.36 528.29 537.37 523.77 537.00 520.00
C 537.00 524.00 537.00 528.00 537.00 532.00 Z"/>
</g>
<g fill="#FFFBC6" fill-opacity="1.00" stroke="None">
<path d="
M 456.00 537.00 
C 456.00 536.96 457.00 537.00 457.00 537.00
C 456.99 533.38 457.32 529.60 457.00 526.00
C 457.00 526.00 456.00 525.96 456.00 526.00
C 456.00 529.67 456.00 533.33 456.00 537.00 Z"/>
</g>
<g fill="#215732" fill-opacity="1.00" stroke="None">
<path d="
M 498.00 566.00 
C 497.96 568.40 500.11 572.84 499.00 576.00
C 507.41 568.48 516.69 562.16 528.00 560.00
C 531.06 559.48 533.92 559.36 537.00 559.00
C 537.00 558.50 537.00 558.00 537.00 558.00
C 537.00 549.47 536.18 540.48 537.00 532.00
C 519.97 533.92 500.06 547.58 498.00 566.00 Z"/>
</g>
<g fill="#E8F5E8" fill-opacity="1.00" stroke="None">
<path d="
M 457.00 642.00 
C 456.51 634.75 456.99 627.27 457.00 620.00
C 457.00 619.50 457.00 619.00 457.00 619.00
C 454.53 615.66 456.66 610.66 457.00 607.00
C 457.85 597.91 457.88 587.09 457.00 578.00
C 456.68 574.67 454.55 569.31 457.00 566.00
C 457.24 565.68 457.00 565.00 457.00 565.00
C 457.00 556.00 456.98 547.00 457.00 538.00
C 457.00 538.00 457.00 537.50 457.00 537.00
C 457.00 537.00 456.00 536.96 456.00 537.00
C 456.00 571.88 451.02 608.65 457.00 642.00 Z"/>
</g>
<g fill="#1E5533" fill-opacity="1.00" stroke="None">
<path d="
M 457.00 565.00 
C 470.46 562.77 482.36 580.39 491.00 588.00
C 493.45 585.02 493.46 582.74 495.00 580.00
C 482.39 582.93 485.12 566.69 481.03 558.98 C 476.93 551.26 469.35 545.54 463.00 540.00
C 460.82 538.98 459.42 538.28 457.00 538.00
C 456.98 547.00 457.00 556.00 457.00 565.00 Z"/>
</g>
<g fill="#3A5618" fill-opacity="1.00" stroke="None">
<path d="
M 457.00 565.00 
C 457.00 565.00 457.24 565.68 457.00 566.00
C 465.03 568.31 472.32 571.72 479.00 577.00
C 481.89 579.28 484.97 581.95 487.00 585.00
C 488.42 587.13 488.73 591.09 492.00 591.00
C 497.07 574.82 513.81 565.80 528.00 560.00
C 516.69 562.16 507.41 568.48 499.00 576.00
C 500.11 572.84 497.96 568.40 498.00 566.00
C 497.87 567.16 498.11 584.85 491.03 578.97 C 483.95 573.10 484.32 560.50 478.00 552.00
C 476.09 549.81 473.10 546.94 471.00 545.00
C 468.45 542.99 465.95 541.38 463.00 540.00
C 469.35 545.54 476.93 551.26 481.03 558.98 C 485.12 566.69 482.39 582.93 495.00 580.00
C 493.46 582.74 493.45 585.02 491.00 588.00
C 482.36 580.39 470.46 562.77 457.00 565.00 Z"/>
</g>
<g fill="#6C7525" fill-opacity="1.00" stroke="None">
<path d="
M 478.00 552.00 
C 476.04 549.36 473.62 547.07 471.00 545.00
C 473.10 546.94 476.09 549.81 478.00 552.00 Z"/>
</g>
<g fill="#FBE9A1" fill-opacity="1.00" stroke="None">
<path d="
M 537.00 559.00 
C 537.00 562.67 537.00 566.33 537.00 570.00
C 539.45 566.69 537.32 561.33 537.00 558.00
C 537.00 558.00 537.00 558.50 537.00 559.00 Z"/>
</g>
<g fill="#ECBF3B" fill-opacity="1.00" stroke="None">
<path d="
M 528.00 560.00 
C 513.81 565.80 497.07 574.82 492.00 591.00
C 488.73 591.09 488.42 587.13 487.00 585.00
C 485.05 582.50 481.32 579.14 479.00 577.00
C 472.32 571.72 465.03 568.31 457.00 566.00
C 457.00 570.00 457.00 574.00 457.00 578.00
C 462.31 580.26 470.92 583.37 474.25 588.75 C 477.58 594.13 485.95 598.73 484.93 606.07 C 483.90 613.42 492.05 624.34 496.92 615.92 C 501.79 607.49 497.06 600.41 502.75 593.75 C 508.44 587.10 509.30 583.65 516.23 579.23 C 523.16 574.81 528.59 571.10 537.00 571.00
C 537.00 571.00 537.00 570.50 537.00 570.00
C 537.00 566.33 537.00 562.67 537.00 559.00
C 533.92 559.36 531.06 559.48 528.00 560.00 Z"/>
</g>
<g fill="#FEFAC9" fill-opacity="1.00" stroke="None">
<path d="
M 457.00 578.00 
C 457.00 574.00 457.00 570.00 457.00 566.00
C 454.55 569.31 456.68 574.67 457.00 578.00 Z"/>
</g>
<g fill="#255630" fill-opacity="1.00" stroke="None">
<path d="
M 457.00 578.00 
C 457.88 587.09 457.85 597.91 457.00 607.00
C 456.43 606.07 459.68 608.23 459.00 608.00
C 471.78 612.35 483.60 620.00 491.00 632.00
C 497.95 613.19 517.94 600.61 537.00 598.00
C 536.15 589.19 537.00 579.86 537.00 571.00
C 528.59 571.10 523.16 574.81 516.23 579.23 C 509.30 583.65 508.44 587.10 502.75 593.75 C 497.06 600.41 501.79 607.49 496.92 615.92 C 492.05 624.34 483.90 613.42 484.93 606.07 C 485.95 598.73 477.58 594.13 474.25 588.75 C 470.92 583.37 462.31 580.26 457.00 578.00 Z"/>
</g>
<g fill="#90943B" fill-opacity="1.00" stroke="None">
<path d="
M 487.00 585.00 
C 484.97 581.95 481.89 579.28 479.00 577.00
C 481.32 579.14 485.05 582.50 487.00 585.00 Z"/>
</g>
<g fill="#EEBF3C" fill-opacity="1.00" stroke="None">
<path d="
M 459.00 608.00 
C 458.64 610.56 455.62 614.32 458.00 619.00
C 462.25 620.67 466.35 623.29 470.00 626.00
C 472.71 628.02 474.87 630.51 477.00 633.00
C 481.38 638.13 484.92 642.82 485.00 650.00 C 485.08 657.18 491.57 662.77 497.00 655.00
C 496.73 652.04 497.64 649.22 498.00 647.00
C 499.07 627.34 519.66 613.10 537.00 609.00
C 537.00 605.33 537.00 601.67 537.00 598.00
C 517.94 600.61 497.95 613.19 491.00 632.00
C 483.60 620.00 471.78 612.35 459.00 608.00 Z"/>
</g>
<g fill="#F8E8A4" fill-opacity="1.00" stroke="None">
<path d="
M 537.00 609.00 
C 537.00 609.50 537.00 610.00 537.00 610.00
C 537.36 606.29 537.37 601.77 537.00 598.00
C 537.00 601.67 537.00 605.33 537.00 609.00 Z"/>
</g>
<g fill="#ECECB7" fill-opacity="1.00" stroke="None">
<path d="
M 457.00 619.00 
C 457.25 618.75 458.00 619.00 458.00 619.00
C 455.62 614.32 458.64 610.56 459.00 608.00
C 459.68 608.23 456.43 606.07 457.00 607.00
C 456.66 610.66 454.53 615.66 457.00 619.00 Z"/>
</g>
<g fill="#205531" fill-opacity="1.00" stroke="None">
<path d="
M 498.00 647.00 
C 497.86 649.65 498.24 652.36 498.00 655.00
C 499.13 657.72 507.65 648.50 512.08 645.08 C 516.51 641.66 526.95 638.40 532.00 638.00
C 533.13 637.70 535.78 636.38 537.00 637.00
C 536.17 628.18 537.00 618.87 537.00 610.00
C 537.00 610.00 537.00 609.50 537.00 609.00
C 519.66 613.10 499.07 627.34 498.00 647.00 Z"/>
</g>
<g fill="#38561C" fill-opacity="1.00" stroke="None">
<path d="
M 457.00 620.00 
C 466.18 623.40 470.87 629.16 476.92 636.08 C 482.98 642.99 481.61 653.89 488.00 661.00
C 490.82 659.70 493.96 659.59 497.00 659.00
C 497.23 663.15 492.41 665.63 493.00 670.00
C 493.00 670.00 493.94 670.16 494.00 670.00
C 495.52 665.95 497.55 661.68 500.00 658.00
C 503.00 653.49 507.65 649.81 512.00 647.00
C 518.30 642.93 524.83 639.93 532.00 638.00
C 526.95 638.40 516.51 641.66 512.08 645.08 C 507.65 648.50 499.13 657.72 498.00 655.00
C 497.93 654.82 497.00 655.00 497.00 655.00
C 491.57 662.77 485.08 657.18 485.00 650.00 C 484.92 642.82 481.38 638.13 477.00 633.00
C 474.85 630.85 472.21 627.93 470.00 626.00
C 466.35 623.29 462.25 620.67 458.00 619.00
C 458.00 619.00 457.25 618.75 457.00 619.00
C 457.00 619.00 457.00 619.50 457.00 620.00 Z"/>
</g>
<g fill="#205536" fill-opacity="1.00" stroke="None">
<path d="
M 457.00 642.00 
C 458.47 663.57 473.10 670.00 493.00 670.00
C 492.41 665.63 497.23 663.15 497.00 659.00
C 493.96 659.59 490.82 659.70 488.00 661.00
C 481.61 653.89 482.98 642.99 476.92 636.08 C 470.87 629.16 466.18 623.40 457.00 620.00
C 456.99 627.27 456.51 634.75 457.00 642.00 Z"/>
</g>
<g fill="#676E1B" fill-opacity="1.00" stroke="None">
<path d="
M 477.00 633.00 
C 474.87 630.51 472.71 628.02 470.00 626.00
C 472.21 627.93 474.85 630.85 477.00 633.00 Z"/>
</g>
<g fill="#EEC13D" fill-opacity="1.00" stroke="None">
<path d="
M 532.00 638.00 
C 524.83 639.93 518.30 642.93 512.00 647.00
C 508.38 649.95 502.95 654.23 500.00 658.00
C 497.55 661.68 495.52 665.95 494.00 670.00
C 497.98 670.27 502.03 669.64 506.00 670.00
C 510.62 667.89 512.58 658.57 518.25 656.25 C 523.91 653.93 530.42 648.13 537.00 648.00
C 537.50 647.99 538.00 648.00 538.00 648.00
C 538.11 644.14 537.33 640.51 537.00 637.00
C 535.78 636.38 533.13 637.70 532.00 638.00 Z"/>
</g>
<g fill="#7E7C21" fill-opacity="1.00" stroke="None">
<path d="
M 497.00 655.00 
C 497.00 655.00 497.93 654.82 498.00 655.00
C 498.24 652.36 497.86 649.65 498.00 647.00
C 497.64 649.22 496.73 652.04 497.00 655.00 Z"/>
</g>
<g fill="#848930" fill-opacity="1.00" stroke="None">
<path d="
M 500.00 658.00 
C 502.95 654.23 508.38 649.95 512.00 647.00
C 507.65 649.81 503.00 653.49 500.00 658.00 Z"/>
</g>
<g fill="#205330" fill-opacity="1.00" stroke="None">
<path d="
M 506.00 670.00 
C 509.62 669.67 513.37 670.07 517.00 670.00
C 527.57 669.79 536.34 665.48 537.00 654.00
C 537.11 652.09 536.61 649.87 537.00 648.00
C 530.42 648.13 523.91 653.93 518.25 656.25 C 512.58 658.57 510.62 667.89 506.00 670.00 Z"/>
</g>
<g fill="#86A089" fill-opacity="1.00" stroke="None">
<path d="
M 537.00 654.00 
C 537.32 652.35 537.94 650.29 538.00 648.00
C 538.00 648.00 537.50 647.99 537.00 648.00
C 536.61 649.87 537.11 652.09 537.00 654.00 Z"/>
</g>
<g fill="#F8F0C4" fill-opacity="1.00" stroke="None">
<path d="
M 506.00 671.00 
C 506.25 670.74 506.00 670.00 506.00 670.00
C 502.03 669.64 497.98 670.27 494.00 670.00
C 494.78 672.94 503.93 673.15 506.00 671.00 Z"/>
</g>
<g fill="#93B09C" fill-opacity="1.00" stroke="None">
<path d="
M 506.00 671.00 
C 509.60 670.65 513.98 670.37 517.00 670.00
C 513.37 670.07 509.62 669.67 506.00 670.00
C 506.00 670.00 506.25 670.74 506.00 671.00 Z"/>
</g>
<g fill="#CAC0E7" fill-opacity="1.00" stroke="None">
<path d="
M 55.00 952.00 
C 55.27 951.75 56.79 951.75 57.00 952.00
C 56.90 950.53 57.53 947.37 55.00 948.00
C 54.61 949.15 55.51 950.91 55.00 952.00 Z"/>
</g>
<g fill="#8694F6" fill-opacity="1.00" stroke="None">
<path d="
M 52.00 958.00 
C 51.83 958.43 52.00 959.00 52.00 959.00
C 54.87 959.92 64.32 968.27 64.00 973.00
C 65.90 971.40 69.65 969.86 72.00 969.00
C 72.25 968.73 72.25 967.27 72.00 967.00
C 64.47 964.24 60.12 959.07 57.00 952.00
C 56.79 951.75 55.27 951.75 55.00 952.00
C 54.05 954.03 52.82 955.91 52.00 958.00 Z"/>
</g>
<g fill="#CCF0FF" fill-opacity="1.00" stroke="None">
<path d="
M 44.00 965.00 
C 46.98 963.42 49.27 960.91 52.00 959.00
C 52.00 959.00 51.83 958.43 52.00 958.00
C 48.82 959.33 46.67 963.20 44.00 965.00 Z"/>
</g>
<g fill="#368CF4" fill-opacity="1.00" stroke="None">
<path d="
M 44.00 965.00 
C 42.26 966.75 37.98 966.15 38.00 969.00
C 47.42 969.77 53.77 978.95 56.00 987.00
C 58.26 982.86 59.87 976.50 64.00 973.00
C 64.32 968.27 54.87 959.92 52.00 959.00
C 49.27 960.91 46.98 963.42 44.00 965.00 Z"/>
</g>
<g fill="#D2CAEE" fill-opacity="1.00" stroke="None">
<path d="
M 72.00 969.00 
C 73.67 968.73 77.52 969.92 77.00 967.00
C 75.48 966.59 73.47 967.54 72.00 967.00
C 72.25 967.27 72.25 968.73 72.00 969.00 Z"/>
</g>
</svg>