<svg id="svg" version="1.1" xmlns="http://www.w3.org/2000/svg" xmlns:xlink="http://www.w3.org/1999/xlink" width="400" height="266.6666666666667" viewBox="0, 0, 400,266.6666666666667"><g id="svgg"><path id="path0" d="M181.500 87.147 C 182.105 87.592,183.065 88.198,183.634 88.494 C 184.202 88.791,185.136 89.459,185.711 89.979 C 186.285 90.500,186.969 90.993,187.231 91.076 C 187.493 91.160,187.978 91.667,188.310 92.204 C 188.642 92.741,189.355 93.622,189.894 94.161 C 190.433 94.700,191.326 95.964,191.879 96.970 C 192.431 97.977,193.345 99.411,193.908 100.158 C 195.343 102.058,195.187 102.159,193.387 100.495 C 187.499 95.056,176.998 93.518,167.333 96.680 C 165.720 97.208,163.680 97.688,162.800 97.748 C 161.920 97.808,158.680 97.993,155.600 98.158 C 148.306 98.551,147.374 99.043,152.667 99.706 C 157.990 100.373,157.977 100.353,153.971 101.754 C 149.637 103.270,143.630 103.320,139.808 101.871 C 138.702 101.452,137.883 100.533,138.616 100.533 C 139.028 100.533,139.199 99.449,138.810 99.300 C 138.385 99.137,136.533 99.879,136.533 100.213 C 136.533 101.723,143.482 108.253,148.183 111.161 C 154.820 115.266,159.658 116.426,171.067 116.648 C 176.387 116.752,180.633 117.532,182.831 118.809 C 184.159 119.581,186.226 120.352,188.456 120.906 C 193.892 122.256,197.580 126.564,199.424 133.718 C 200.365 137.371,200.612 137.459,201.180 134.344 C 202.031 129.674,204.101 125.937,207.289 123.312 C 208.549 122.275,213.874 119.735,214.793 119.733 C 214.943 119.732,215.765 119.364,216.619 118.914 C 219.380 117.459,222.966 116.871,230.133 116.699 C 244.883 116.346,254.013 112.356,262.458 102.573 C 264.242 100.506,264.241 100.562,262.493 100.310 C 261.423 100.156,261.200 100.029,261.200 99.572 C 261.200 98.870,260.656 98.210,259.647 97.689 C 258.935 97.321,258.871 97.321,259.013 97.690 C 259.100 97.915,259.300 98.581,259.458 99.169 C 259.762 100.299,260.804 101.333,261.636 101.333 C 262.477 101.333,262.188 101.720,261.090 102.062 C 256.635 103.453,248.237 102.987,244.695 101.153 L 243.657 100.616 244.828 100.329 C 245.473 100.171,246.840 99.958,247.867 99.856 C 248.893 99.753,250.153 99.489,250.667 99.269 L 251.600 98.868 250.800 98.651 C 249.580 98.322,243.520 97.867,240.319 97.865 C 237.778 97.863,237.175 97.764,234.800 96.956 C 224.019 93.288,213.418 94.702,207.267 100.628 C 206.203 101.652,205.336 102.320,205.339 102.112 C 205.351 101.380,206.326 99.590,207.225 98.650 C 207.725 98.128,208.553 97.182,209.067 96.549 C 209.922 95.493,211.194 94.161,212.733 92.710 C 213.063 92.399,213.333 92.004,213.333 91.832 C 213.333 91.660,213.663 91.402,214.067 91.259 C 214.480 91.113,215.091 90.516,215.467 89.892 C 215.896 89.179,216.384 88.729,216.837 88.631 C 217.224 88.547,217.890 88.160,218.316 87.771 C 218.741 87.382,219.385 86.923,219.745 86.750 C 220.105 86.577,220.239 86.428,220.042 86.418 C 219.460 86.389,215.507 88.478,213.687 89.777 C 207.653 94.082,202.714 101.637,201.077 109.063 C 200.385 112.201,200.040 113.033,200.017 111.618 C 199.880 103.124,191.369 91.188,182.533 87.101 C 180.774 86.287,180.355 86.305,181.500 87.147 M186.956 137.670 C 186.928 145.041,187.039 145.421,189.784 147.379 C 196.254 151.996,205.022 151.664,212.179 146.531 C 213.625 145.495,213.594 145.670,213.585 138.533 C 213.578 132.529,213.568 132.418,213.110 133.277 C 208.426 142.061,189.974 141.342,187.184 132.267 C 187.071 131.900,186.969 134.331,186.956 137.670 M186.938 162.000 C 186.937 170.682,187.124 173.164,187.922 175.067 C 192.585 186.180,209.065 185.567,213.011 174.133 C 213.478 172.781,213.845 154.400,213.405 154.400 C 213.278 154.400,213.024 154.814,212.841 155.320 C 211.612 158.720,205.268 161.528,199.409 161.267 C 193.755 161.014,190.066 159.007,187.766 154.933 L 186.938 153.467 186.938 162.000 " stroke="none" fill="#23960c" fill-rule="evenodd"></path><path id="path1" d="M0.000 133.333 L 0.000 266.667 200.000 266.667 L 400.000 266.667 400.000 133.333 L 400.000 0.000 200.000 0.000 L 0.000 0.000 0.000 133.333 M236.667 84.171 C 243.340 85.409,247.475 87.682,257.686 95.726 C 260.445 97.899,261.758 98.851,263.000 99.577 C 264.595 100.509,264.602 100.456,262.556 102.894 C 259.438 106.612,255.557 109.770,251.242 112.100 C 244.256 115.874,240.425 116.746,229.467 117.060 C 221.552 117.287,218.125 117.893,216.515 119.350 C 216.231 119.607,215.549 119.891,214.999 119.980 L 214.000 120.142 213.862 146.538 C 213.765 165.243,213.636 173.178,213.422 173.774 C 208.669 186.966,190.297 186.604,187.209 173.256 C 186.684 170.989,186.667 170.102,186.667 146.009 C 186.667 119.371,186.709 120.267,185.440 120.267 C 185.227 120.267,184.245 119.850,183.259 119.340 C 180.177 117.746,176.877 117.068,172.171 117.061 C 157.401 117.038,149.074 113.916,140.245 105.088 C 135.887 100.730,135.608 100.075,137.667 99.036 C 139.331 98.197,142.453 96.134,144.642 94.428 C 148.316 91.564,149.060 91.024,151.537 89.422 C 157.592 85.504,163.218 83.736,169.638 83.734 C 180.890 83.731,191.864 90.660,197.071 101.056 C 198.126 103.163,199.601 107.478,199.895 109.320 C 200.111 110.671,200.418 110.703,200.661 109.400 C 203.747 92.854,220.437 81.159,236.667 84.171 " stroke="none" fill="#fbfcfb" fill-rule="evenodd"></path><path id="path2" d="M163.733 84.522 C 157.500 85.856,147.011 91.730,143.148 96.051 C 142.899 96.329,142.625 96.545,142.539 96.531 C 142.016 96.447,138.391 99.040,138.751 99.242 C 139.175 99.479,139.065 100.533,138.616 100.533 C 137.883 100.533,138.702 101.452,139.808 101.871 C 143.630 103.320,149.637 103.270,153.971 101.754 C 157.977 100.353,157.990 100.373,152.667 99.706 C 147.374 99.043,148.306 98.551,155.600 98.158 C 158.680 97.993,161.920 97.808,162.800 97.748 C 163.680 97.688,165.720 97.208,167.333 96.680 C 176.998 93.518,187.499 95.056,193.387 100.495 C 195.187 102.159,195.343 102.058,193.908 100.158 C 193.345 99.411,192.431 97.977,191.879 96.970 C 191.326 95.964,190.433 94.700,189.894 94.161 C 189.355 93.622,188.642 92.741,188.310 92.204 C 187.978 91.667,187.493 91.160,187.231 91.076 C 186.969 90.993,186.285 90.500,185.711 89.979 C 185.136 89.459,184.190 88.785,183.608 88.482 C 182.111 87.701,181.064 86.886,181.224 86.627 C 181.300 86.506,181.155 86.485,180.903 86.582 C 180.600 86.698,180.509 86.656,180.632 86.456 C 180.832 86.132,176.770 84.759,174.164 84.270 C 171.861 83.837,166.306 83.972,163.733 84.522 M226.015 84.418 C 223.301 84.957,219.634 86.174,220.014 86.409 C 220.236 86.546,220.159 86.665,219.771 86.788 C 219.460 86.887,219.085 86.894,218.939 86.803 C 218.792 86.713,218.735 86.800,218.810 86.997 C 218.968 87.408,217.788 88.361,216.800 88.621 C 216.413 88.724,215.854 89.258,215.467 89.898 C 215.094 90.515,214.477 91.114,214.067 91.259 C 213.663 91.402,213.333 91.660,213.333 91.832 C 213.333 92.004,213.063 92.399,212.733 92.710 C 211.194 94.161,209.922 95.493,209.067 96.549 C 208.553 97.182,207.725 98.128,207.225 98.650 C 206.326 99.590,205.351 101.380,205.339 102.112 C 205.336 102.320,206.203 101.652,207.267 100.628 C 213.418 94.702,224.019 93.288,234.800 96.956 C 237.175 97.764,237.778 97.863,240.319 97.865 C 243.520 97.867,249.580 98.322,250.800 98.651 L 251.600 98.868 250.667 99.269 C 250.153 99.489,248.893 99.753,247.867 99.856 C 246.840 99.958,245.473 100.171,244.828 100.329 L 243.657 100.616 244.695 101.153 C 248.237 102.987,256.635 103.453,261.090 102.062 C 262.188 101.720,262.477 101.333,261.636 101.333 C 260.804 101.333,259.762 100.299,259.458 99.169 C 259.300 98.581,259.097 97.908,259.007 97.673 C 258.889 97.366,258.950 97.299,259.221 97.435 C 259.430 97.539,259.250 97.349,258.823 97.012 C 252.780 92.251,251.398 91.204,249.078 89.626 C 242.181 84.933,233.404 82.951,226.015 84.418 M261.015 98.700 C 261.195 98.938,261.268 99.327,261.177 99.564 C 260.994 100.040,261.207 100.147,262.777 100.368 C 263.495 100.468,263.735 100.428,263.545 100.239 C 263.394 100.087,263.075 99.934,262.836 99.899 C 262.598 99.864,262.017 99.483,261.545 99.051 C 261.073 98.620,260.835 98.461,261.015 98.700 M210.967 121.202 C 205.780 123.325,202.349 127.932,201.180 134.344 C 200.612 137.459,200.365 137.371,199.424 133.718 C 197.920 127.885,195.537 124.378,191.543 122.125 C 190.302 121.424,186.968 120.327,186.844 120.579 C 186.820 120.627,186.860 123.309,186.933 126.540 L 187.067 132.412 188.068 133.920 C 193.271 141.754,208.802 141.355,213.110 133.277 C 213.607 132.345,213.849 121.338,213.389 120.614 C 213.239 120.379,212.597 120.535,210.967 121.202 M186.933 148.841 L 186.933 153.415 187.847 155.041 C 191.287 161.163,200.670 163.281,208.010 159.593 C 210.175 158.505,212.402 156.536,212.841 155.320 C 213.024 154.814,213.270 154.400,213.387 154.400 C 213.504 154.400,213.586 152.270,213.569 149.667 C 213.552 147.063,213.485 145.113,213.420 145.333 C 212.941 146.960,206.588 149.942,202.504 150.458 C 196.755 151.184,189.193 148.519,187.624 145.212 C 186.953 143.798,186.933 143.899,186.933 148.841 " stroke="none" fill="#a1d106" fill-rule="evenodd"></path><path id="path3" d="M230.605 83.927 C 231.084 83.986,231.804 83.985,232.205 83.924 C 232.605 83.863,232.213 83.814,231.333 83.816 C 230.453 83.817,230.125 83.867,230.605 83.927 M181.333 86.533 C 181.700 86.743,182.120 86.914,182.267 86.914 C 182.413 86.914,182.233 86.743,181.867 86.533 C 181.500 86.324,181.080 86.152,180.933 86.152 C 180.787 86.152,180.967 86.324,181.333 86.533 M188.800 91.017 C 188.800 91.063,189.190 91.453,189.667 91.883 L 190.533 92.667 189.750 91.800 C 189.020 90.992,188.800 90.811,188.800 91.017 M192.672 95.000 C 193.244 95.697,193.756 96.267,193.808 96.267 C 193.999 96.267,192.840 94.785,192.244 94.267 C 191.907 93.973,192.099 94.303,192.672 95.000 M205.702 97.667 C 204.784 99.224,204.724 99.357,205.191 98.800 C 205.733 98.155,206.200 97.333,206.025 97.333 C 205.955 97.333,205.810 97.483,205.702 97.667 M195.867 99.467 C 196.094 99.907,196.340 100.267,196.414 100.267 C 196.487 100.267,196.361 99.907,196.133 99.467 C 195.906 99.027,195.660 98.667,195.586 98.667 C 195.513 98.667,195.639 99.027,195.867 99.467 M137.333 101.950 C 137.333 101.996,137.723 102.386,138.200 102.817 L 139.067 103.600 138.283 102.733 C 137.553 101.925,137.333 101.744,137.333 101.950 M259.733 105.467 C 258.641 106.567,257.807 107.467,257.880 107.467 C 257.953 107.467,258.907 106.567,260.000 105.467 C 261.093 104.367,261.927 103.467,261.853 103.467 C 261.780 103.467,260.826 104.367,259.733 105.467 M200.700 109.633 C 200.478 110.745,200.693 110.960,200.933 109.867 C 201.035 109.406,201.062 108.973,200.994 108.905 C 200.926 108.837,200.794 109.165,200.700 109.633 M247.200 113.733 C 246.833 113.943,246.653 114.114,246.800 114.114 C 246.947 114.114,247.367 113.943,247.733 113.733 C 248.100 113.524,248.280 113.352,248.133 113.352 C 247.987 113.352,247.567 113.524,247.200 113.733 M165.943 116.731 C 166.792 116.784,168.112 116.783,168.876 116.730 C 169.641 116.676,168.947 116.632,167.333 116.633 C 165.720 116.634,165.094 116.678,165.943 116.731 M172.205 116.727 C 172.684 116.786,173.404 116.785,173.805 116.724 C 174.205 116.663,173.813 116.614,172.933 116.616 C 172.053 116.617,171.725 116.667,172.205 116.727 M234.071 116.727 C 234.551 116.786,235.271 116.785,235.671 116.724 C 236.072 116.663,235.680 116.614,234.800 116.616 C 233.920 116.617,233.592 116.667,234.071 116.727 M175.267 116.984 C 175.523 117.051,175.943 117.051,176.200 116.984 C 176.457 116.917,176.247 116.862,175.733 116.862 C 175.220 116.862,175.010 116.917,175.267 116.984 M181.067 118.267 C 182.284 118.736,182.763 118.729,181.733 118.257 C 181.293 118.056,180.753 117.894,180.533 117.899 C 180.313 117.904,180.553 118.069,181.067 118.267 M184.139 119.707 C 184.283 119.847,184.760 120.048,185.200 120.152 C 186.232 120.397,186.000 120.169,184.806 119.766 C 184.296 119.593,183.996 119.567,184.139 119.707 M213.715 138.533 C 213.715 142.053,213.753 143.456,213.799 141.651 C 213.846 139.846,213.845 136.966,213.799 135.251 C 213.753 133.536,213.715 135.013,213.715 138.533 M213.703 148.533 C 213.703 150.367,213.745 151.117,213.797 150.200 C 213.850 149.283,213.850 147.783,213.797 146.867 C 213.745 145.950,213.703 146.700,213.703 148.533 M213.719 162.667 C 213.719 167.433,213.755 169.383,213.800 167.000 C 213.844 164.617,213.844 160.717,213.800 158.333 C 213.755 155.950,213.719 157.900,213.719 162.667 M211.867 176.533 C 211.639 176.973,211.513 177.333,211.586 177.333 C 211.660 177.333,211.906 176.973,212.133 176.533 C 212.361 176.093,212.487 175.733,212.414 175.733 C 212.340 175.733,212.094 176.093,211.867 176.533 " stroke="none" fill="#88dc88" fill-rule="evenodd"></path><path id="path4" d="M167.800 83.931 C 168.790 83.982,170.410 83.982,171.400 83.931 C 172.390 83.880,171.580 83.838,169.600 83.838 C 167.620 83.838,166.810 83.880,167.800 83.931 M228.200 83.922 C 228.530 83.985,229.070 83.985,229.400 83.922 C 229.730 83.858,229.460 83.806,228.800 83.806 C 228.140 83.806,227.870 83.858,228.200 83.922 M233.404 83.925 C 233.809 83.986,234.409 83.984,234.737 83.921 C 235.065 83.858,234.733 83.808,234.000 83.810 C 233.267 83.812,232.998 83.863,233.404 83.925 M160.133 85.190 C 159.103 85.662,159.582 85.669,160.800 85.200 C 161.313 85.002,161.553 84.837,161.333 84.832 C 161.113 84.828,160.573 84.989,160.133 85.190 M177.733 85.067 C 178.027 85.193,178.447 85.296,178.667 85.296 C 178.919 85.296,178.870 85.211,178.533 85.067 C 178.240 84.941,177.820 84.837,177.600 84.837 C 177.348 84.837,177.397 84.922,177.733 85.067 M222.267 85.067 C 221.930 85.211,221.881 85.296,222.133 85.296 C 222.353 85.296,222.773 85.193,223.067 85.067 C 223.403 84.922,223.452 84.837,223.200 84.837 C 222.980 84.837,222.560 84.941,222.267 85.067 M243.222 86.234 C 243.495 86.481,245.600 87.464,245.600 87.344 C 245.600 87.193,243.588 86.133,243.300 86.133 C 243.196 86.133,243.161 86.179,243.222 86.234 M155.933 86.819 C 154.899 87.380,155.017 87.574,156.067 87.040 C 157.072 86.528,157.250 86.396,156.911 86.411 C 156.777 86.417,156.337 86.600,155.933 86.819 M217.800 86.819 C 216.766 87.380,216.883 87.574,217.933 87.040 C 218.939 86.528,219.116 86.396,218.778 86.411 C 218.643 86.417,218.203 86.600,217.800 86.819 M153.667 88.031 C 152.463 88.801,152.575 88.979,153.800 88.242 C 155.040 87.497,155.079 87.466,154.778 87.471 C 154.643 87.474,154.143 87.725,153.667 88.031 M150.733 89.897 C 149.824 90.479,149.530 90.870,150.333 90.429 C 150.945 90.093,151.904 89.351,151.733 89.346 C 151.660 89.344,151.210 89.592,150.733 89.897 M148.667 91.357 L 147.867 92.044 148.733 91.471 C 149.210 91.155,149.600 90.845,149.600 90.782 C 149.600 90.582,149.487 90.652,148.667 91.357 M211.050 91.533 L 210.267 92.400 211.133 91.617 C 211.610 91.186,212.000 90.796,212.000 90.750 C 212.000 90.544,211.780 90.725,211.050 91.533 M191.067 93.067 C 192.085 94.093,192.979 94.933,193.052 94.933 C 193.126 94.933,192.352 94.093,191.333 93.067 C 190.315 92.040,189.421 91.200,189.348 91.200 C 189.274 91.200,190.048 92.040,191.067 93.067 M146.244 93.219 L 145.200 94.172 146.333 93.308 C 147.369 92.519,147.622 92.267,147.378 92.267 C 147.329 92.267,146.819 92.695,146.244 93.219 M208.252 94.333 L 207.333 95.333 208.333 94.414 C 209.264 93.559,209.456 93.333,209.252 93.333 C 209.208 93.333,208.758 93.783,208.252 94.333 M254.933 93.689 C 254.933 93.762,255.413 94.202,256.000 94.667 C 256.587 95.131,257.067 95.451,257.067 95.378 C 257.067 95.305,256.587 94.865,256.000 94.400 C 255.413 93.935,254.933 93.615,254.933 93.689 M144.000 94.966 C 143.071 95.781,143.070 95.782,143.925 95.213 C 144.398 94.899,144.855 94.527,144.941 94.388 C 145.198 93.971,144.985 94.102,144.000 94.966 M140.067 97.631 C 139.158 98.213,138.864 98.604,139.667 98.162 C 140.279 97.826,141.237 97.085,141.067 97.080 C 140.993 97.077,140.543 97.325,140.067 97.631 M259.562 97.273 C 259.773 97.614,261.333 98.768,261.333 98.583 C 261.333 98.517,260.893 98.127,260.354 97.717 C 259.816 97.306,259.460 97.106,259.562 97.273 M137.267 99.218 C 136.717 99.509,136.267 99.806,136.267 99.878 C 136.267 99.951,136.747 99.766,137.333 99.467 C 137.920 99.167,138.400 98.865,138.400 98.795 C 138.400 98.620,138.398 98.621,137.267 99.218 M259.992 105.533 L 258.267 107.333 260.067 105.608 C 261.057 104.659,261.867 103.849,261.867 103.808 C 261.867 103.611,261.595 103.861,259.992 105.533 M141.467 106.400 C 142.040 106.987,142.568 107.467,142.642 107.467 C 142.715 107.467,142.306 106.987,141.733 106.400 C 141.160 105.813,140.632 105.333,140.558 105.333 C 140.485 105.333,140.894 105.813,141.467 106.400 M200.019 111.133 C 200.035 111.783,200.064 111.806,200.267 111.333 C 200.580 110.605,200.580 110.400,200.267 110.400 C 200.120 110.400,200.008 110.730,200.019 111.133 M154.667 114.622 C 154.887 114.758,155.367 114.949,155.733 115.047 C 156.197 115.171,156.278 115.150,156.000 114.978 C 155.780 114.842,155.300 114.651,154.933 114.553 C 154.470 114.429,154.389 114.450,154.667 114.622 M163.267 116.717 C 163.523 116.784,163.943 116.784,164.200 116.717 C 164.457 116.650,164.247 116.595,163.733 116.595 C 163.220 116.595,163.010 116.650,163.267 116.717 M168.867 116.998 C 170.003 117.048,171.863 117.048,173.000 116.998 C 174.137 116.948,173.207 116.907,170.933 116.907 C 168.660 116.907,167.730 116.948,168.867 116.998 M226.987 116.998 C 228.262 117.047,230.422 117.047,231.787 116.999 C 233.151 116.950,232.107 116.910,229.467 116.910 C 226.827 116.910,225.711 116.950,226.987 116.998 M213.733 120.204 C 213.562 120.330,213.516 122.546,213.605 126.400 L 213.744 132.400 213.872 126.200 C 213.942 122.790,214.000 120.001,214.000 120.004 C 214.000 120.006,213.880 120.096,213.733 120.204 M186.601 139.025 C 186.638 149.168,186.700 160.647,186.738 164.533 C 186.777 168.420,186.835 160.260,186.867 146.400 C 186.899 132.540,186.837 121.061,186.729 120.892 C 186.621 120.723,186.564 128.883,186.601 139.025 M213.676 152.933 C 213.678 153.667,213.730 153.935,213.791 153.530 C 213.853 153.124,213.851 152.524,213.788 152.196 C 213.724 151.868,213.674 152.200,213.676 152.933 M209.183 180.067 L 208.400 180.933 209.267 180.150 C 209.743 179.719,210.133 179.329,210.133 179.283 C 210.133 179.077,209.913 179.259,209.183 180.067 M199.000 183.394 C 199.550 183.452,200.450 183.452,201.000 183.394 C 201.550 183.337,201.100 183.290,200.000 183.290 C 198.900 183.290,198.450 183.337,199.000 183.394 " stroke="none" fill="#a9ec98" fill-rule="evenodd"></path></g></svg>