<svg xmlns="http://www.w3.org/2000/svg" version="1.1" xmlns:xlink="http://www.w3.org/1999/xlink" width="1000" height="1000"><g clip-path="url(#SvgjsClipPath1050)"><rect width="1000" height="1000" fill="#ffffff"></rect><g transform="matrix(0.8012820512820513,0,0,0.8012820512820513,0,166.66666666666663)"><svg xmlns="http://www.w3.org/2000/svg" version="1.1" xmlns:xlink="http://www.w3.org/1999/xlink" width="1248" height="832"><svg xmlns="http://www.w3.org/2000/svg" xmlns:v="https://svgstorm.com" viewBox="0 0 1248 832" width="1248" height="832">
<g fill="None" fill-opacity="0.0" stroke="#FEFEFE" stroke-opacity="1.00" stroke-width="0.3">
</g>
<g fill="None" fill-opacity="0.0" stroke="#C4F99F" stroke-opacity="1.00" stroke-width="0.3"><path d="
M 521.00 262.00 
C 526.65 261.89 532.35 261.89 538.00 262.00
C 532.64 261.35 526.43 261.34 521.00 262.00 Z" data-index="1"></path>
</g>
<g fill="None" fill-opacity="0.0" stroke="#71D60C" stroke-opacity="1.00" stroke-width="0.3"><path d="
M 690.00 267.00 
C 686.28 268.41 683.00 269.83 680.00 272.00
C 673.52 276.68 668.13 280.71 661.75 285.75 C 655.38 290.80 652.45 296.13 646.25 302.25 C 640.04 308.36 640.43 319.01 634.00 323.00
C 634.53 324.88 632.52 331.13 636.00 329.00
C 646.17 311.33 657.53 304.70 677.01 299.01 C 696.48 293.32 720.22 300.35 739.00 305.00
C 753.98 308.71 772.01 303.07 786.00 309.00
C 778.12 313.81 767.22 309.83 760.00 315.00
C 762.90 316.83 765.78 317.20 769.00 318.00
C 774.32 319.32 781.44 321.28 787.00 321.00 C 792.56 320.72 803.75 321.63 808.02 320.02 C 812.30 318.41 824.22 319.14 823.00 313.00
C 819.37 305.75 806.45 302.88 800.75 296.25 C 795.04 289.62 786.25 285.81 779.08 279.92 C 771.91 274.03 763.14 270.83 754.07 266.93 C 745.01 263.03 732.69 261.20 722.00 261.00 C 711.31 260.80 699.81 263.29 690.00 267.00 Z" data-index="2"></path>
</g>
<g fill="None" fill-opacity="0.0" stroke="#70D50C" stroke-opacity="1.00" stroke-width="0.3"><path d="
M 432.00 308.00 
C 431.75 308.22 432.00 309.00 432.00 309.00
C 430.96 310.52 429.77 311.38 428.00 312.00
C 431.38 319.63 442.17 320.47 451.00 321.00 C 459.83 321.52 471.88 321.61 480.00 318.00
C 483.08 317.09 485.97 316.31 489.00 315.00
C 490.41 312.93 483.35 311.22 479.98 311.02 C 476.60 310.83 469.45 310.42 466.00 309.00
C 478.93 304.25 494.66 306.60 509.00 306.00
C 525.35 303.97 542.06 294.00 560.00 297.00 C 577.94 300.00 589.04 303.67 603.25 314.75 C 617.46 325.83 616.55 341.08 624.00 355.00
C 623.98 354.61 624.87 351.08 625.00 350.00
C 624.89 349.74 624.18 349.33 624.00 349.00
C 622.75 346.74 621.33 341.17 623.00 339.00
C 622.92 338.51 623.00 338.00 623.00 338.00
C 623.00 338.00 623.02 337.50 623.00 337.00
C 622.58 336.25 621.29 334.76 621.00 334.00
C 618.84 331.06 610.72 313.96 611.00 309.00
C 610.82 308.67 610.32 308.19 610.00 308.00
C 605.71 305.44 604.20 299.82 600.75 296.25 C 597.30 292.68 592.55 289.19 590.00 285.00
C 589.68 284.47 589.35 283.42 589.00 283.00
C 574.78 271.77 556.49 262.37 538.00 262.00
C 532.35 261.89 526.65 261.89 521.00 262.00
C 504.17 262.34 484.14 269.77 471.23 280.23 C 458.32 290.69 444.23 297.31 432.00 308.00 Z" data-index="3"></path>
</g>
<g fill="None" fill-opacity="0.0" stroke="#DCFACB" stroke-opacity="1.00" stroke-width="0.3">
</g>
<g fill="None" fill-opacity="0.0" stroke="#50B427" stroke-opacity="1.00" stroke-width="0.3"><path d="
M 661.00 284.00 
C 642.35 298.72 631.51 318.83 627.00 341.00
C 626.39 344.00 625.37 346.87 625.00 350.00
C 624.87 351.08 623.98 354.61 624.00 355.00
C 627.07 360.74 627.92 349.08 629.77 344.77 C 631.62 340.46 633.44 333.45 636.00 329.00
C 632.52 331.13 634.53 324.88 634.00 323.00
C 640.43 319.01 640.04 308.36 646.25 302.25 C 652.45 296.13 655.38 290.80 661.75 285.75 C 668.13 280.71 673.52 276.68 680.00 272.00
C 673.16 275.49 667.23 279.08 661.00 284.00 Z" data-index="5"></path>
</g>
<g fill="None" fill-opacity="0.0" stroke="#C4F6B9" stroke-opacity="1.00" stroke-width="0.3"><path d="
M 590.00 285.00 
C 593.88 289.16 599.40 292.70 603.00 297.00
C 599.40 291.95 593.90 286.87 589.00 283.00
C 589.35 283.42 589.68 284.47 590.00 285.00 Z" data-index="6"></path>
</g>
<g fill="None" fill-opacity="0.0" stroke="#51A930" stroke-opacity="1.00" stroke-width="0.3"><path d="
M 610.00 308.00 
C 609.49 307.46 609.37 306.59 609.00 306.00
C 607.13 302.99 605.06 299.88 603.00 297.00
C 599.40 292.70 593.88 289.16 590.00 285.00
C 592.55 289.19 597.30 292.68 600.75 296.25 C 604.20 299.82 605.71 305.44 610.00 308.00 Z" data-index="7"></path>
</g>
<g fill="None" fill-opacity="0.0" stroke="#006806" stroke-opacity="1.00" stroke-width="0.3"><path d="
M 509.00 306.00 
C 502.56 309.08 495.72 312.10 489.00 315.00
C 485.97 316.31 483.08 317.09 480.00 318.00
C 479.35 318.46 478.36 319.16 478.00 320.00
C 483.54 319.81 488.64 317.97 494.00 317.00
C 499.52 315.13 506.90 310.48 513.00 310.00 C 519.11 309.53 537.09 309.18 525.00 307.00
C 575.34 301.01 613.82 349.09 622.00 394.00
C 621.96 391.67 622.03 389.33 622.00 387.00
C 621.94 392.69 628.09 402.24 624.00 406.00
C 624.90 410.82 626.91 417.63 627.00 422.00
C 627.60 418.45 627.88 414.44 629.00 411.00
C 628.41 406.81 625.97 396.70 628.98 389.98 C 631.99 383.25 632.33 375.79 635.33 369.33 C 638.33 362.86 641.20 356.65 644.75 350.75 C 648.31 344.86 650.66 339.49 655.75 334.75 C 660.84 330.01 664.13 325.73 669.75 321.75 C 675.37 317.77 681.24 314.14 688.07 312.07 C 694.91 310.01 702.38 307.05 710.00 307.00 C 717.62 306.95 728.50 306.16 735.67 308.33 C 742.84 310.50 749.29 312.41 755.00 317.00
C 755.50 316.95 756.00 317.00 756.00 317.00
C 757.66 317.08 759.34 316.94 761.00 317.00
C 760.92 315.74 758.94 316.44 759.00 315.00
C 751.63 312.64 745.70 308.10 739.00 305.00
C 720.22 300.35 696.48 293.32 677.01 299.01 C 657.53 304.70 646.17 311.33 636.00 329.00
C 633.44 333.45 631.62 340.46 629.77 344.77 C 627.92 349.08 627.07 360.74 624.00 355.00
C 616.55 341.08 617.46 325.83 603.25 314.75 C 589.04 303.67 577.94 300.00 560.00 297.00 C 542.06 294.00 525.35 303.97 509.00 306.00 Z" data-index="8"></path>
</g>
<g fill="None" fill-opacity="0.0" stroke="#37B503" stroke-opacity="1.00" stroke-width="0.3"><path d="
M 759.00 315.00 
C 759.45 315.15 760.00 315.00 760.00 315.00
C 767.22 309.83 778.12 313.81 786.00 309.00
C 772.01 303.07 753.98 308.71 739.00 305.00
C 745.70 308.10 751.63 312.64 759.00 315.00 Z" data-index="9"></path>
</g>
<g fill="None" fill-opacity="0.0" stroke="#35B702" stroke-opacity="1.00" stroke-width="0.3"><path d="
M 489.00 315.00 
C 495.72 312.10 502.56 309.08 509.00 306.00
C 494.66 306.60 478.93 304.25 466.00 309.00
C 469.45 310.42 476.60 310.83 479.98 311.02 C 483.35 311.22 490.41 312.93 489.00 315.00 Z" data-index="10"></path>
</g>
<g fill="None" fill-opacity="0.0" stroke="#089504" stroke-opacity="1.00" stroke-width="0.3"><path d="
M 494.00 317.00 
C 513.28 314.55 534.15 313.38 552.00 321.00
C 535.37 338.03 514.48 354.98 491.00 360.00
C 499.23 361.85 507.37 363.83 516.00 364.00
C 525.66 364.19 536.10 363.85 545.00 365.00
C 547.37 364.74 549.38 365.75 551.00 366.00
C 561.76 366.64 570.39 371.58 580.00 375.00
C 581.08 375.38 582.52 375.97 583.00 377.00
C 594.37 374.76 605.32 385.55 612.30 393.70 C 619.29 401.85 621.98 417.81 625.00 428.00
C 627.71 427.23 626.86 424.10 627.00 422.00
C 626.91 417.63 624.90 410.82 624.00 406.00
C 623.23 401.89 622.08 398.44 622.00 394.00
C 613.82 349.09 575.34 301.01 525.00 307.00
C 537.09 309.18 519.11 309.53 513.00 310.00 C 506.90 310.48 499.52 315.13 494.00 317.00 Z" data-index="11"></path>
</g>
<g fill="None" fill-opacity="0.0" stroke="#C9F5C7" stroke-opacity="1.00" stroke-width="0.3"><path d="
M 610.00 308.00 
C 610.32 308.19 610.82 308.67 611.00 309.00
C 611.63 310.13 612.41 311.08 613.00 312.00
C 611.65 309.04 611.21 308.54 609.00 306.00
C 609.37 306.59 609.49 307.46 610.00 308.00 Z" data-index="12"></path>
</g>
<g fill="None" fill-opacity="0.0" stroke="#EAFCD7" stroke-opacity="1.00" stroke-width="0.3"><path d="
M 455.00 343.00 
C 452.09 340.83 449.03 338.17 446.00 336.00
C 441.15 332.54 436.80 327.45 433.00 323.00
C 430.00 319.49 426.83 316.18 425.00 312.00
C 427.38 311.03 429.39 309.25 432.00 309.00
C 432.00 309.00 431.75 308.22 432.00 308.00
C 430.90 306.84 419.76 310.96 425.25 315.75 C 430.73 320.54 428.41 319.35 434.25 325.75 C 440.09 332.15 447.65 339.03 455.00 343.00 Z" data-index="13"></path>
</g>
<g fill="None" fill-opacity="0.0" stroke="#059402" stroke-opacity="1.00" stroke-width="0.3"><path d="
M 629.00 411.00 
C 634.41 394.34 646.15 383.53 662.00 377.00
C 663.84 376.24 665.71 374.42 668.00 374.00
C 668.92 373.83 670.07 374.00 671.00 374.00
C 672.36 373.59 674.43 371.69 676.00 371.00
C 683.50 367.69 691.67 365.32 700.00 365.00
C 709.89 363.59 721.39 364.00 732.00 364.00
C 738.21 364.00 744.11 363.14 750.00 362.00
C 743.26 360.82 736.88 352.39 729.92 350.08 C 722.97 347.76 718.80 339.17 712.75 335.25 C 706.70 331.33 698.88 326.82 696.00 320.00
C 714.69 313.27 735.23 315.24 755.00 317.00
C 749.29 312.41 742.84 310.50 735.67 308.33 C 728.50 306.16 717.62 306.95 710.00 307.00 C 702.38 307.05 694.91 310.01 688.07 312.07 C 681.24 314.14 675.37 317.77 669.75 321.75 C 664.13 325.73 660.84 330.01 655.75 334.75 C 650.66 339.49 648.31 344.86 644.75 350.75 C 641.20 356.65 638.33 362.86 635.33 369.33 C 632.33 375.79 631.99 383.25 628.98 389.98 C 625.97 396.70 628.41 406.81 629.00 411.00 Z" data-index="14"></path>
</g>
<g fill="None" fill-opacity="0.0" stroke="#20AF02" stroke-opacity="1.00" stroke-width="0.3"><path d="
M 433.00 323.00 
C 437.09 327.09 441.66 332.36 446.00 336.00
C 449.03 338.17 452.09 340.83 455.00 343.00
C 466.81 349.37 477.76 357.02 491.00 360.00
C 514.48 354.98 535.37 338.03 552.00 321.00
C 534.15 313.38 513.28 314.55 494.00 317.00
C 488.64 317.97 483.54 319.81 478.00 320.00
C 478.36 319.16 479.35 318.46 480.00 318.00
C 471.88 321.61 459.83 321.52 451.00 321.00 C 442.17 320.47 431.38 319.63 428.00 312.00
C 429.77 311.38 430.96 310.52 432.00 309.00
C 429.39 309.25 427.38 311.03 425.00 312.00
C 426.83 316.18 430.00 319.49 433.00 323.00 Z" data-index="15"></path>
</g>
<g fill="None" fill-opacity="0.0" stroke="#51B437" stroke-opacity="1.00" stroke-width="0.3"><path d="
M 621.00 334.00 
C 619.43 329.87 618.57 325.25 617.00 321.00
C 615.88 317.97 614.79 314.81 613.00 312.00
C 612.41 311.08 611.63 310.13 611.00 309.00
C 610.72 313.96 618.84 331.06 621.00 334.00 Z" data-index="16"></path>
</g>
<g fill="None" fill-opacity="0.0" stroke="#20B005" stroke-opacity="1.00" stroke-width="0.3"><path d="
M 769.00 318.00 
C 770.30 317.85 766.45 321.26 763.93 319.07 C 761.41 316.89 758.56 318.20 756.00 317.00
C 756.00 317.00 755.50 316.95 755.00 317.00
C 735.23 315.24 714.69 313.27 696.00 320.00
C 698.88 326.82 706.70 331.33 712.75 335.25 C 718.80 339.17 722.97 347.76 729.92 350.08 C 736.88 352.39 743.26 360.82 750.00 362.00
C 757.45 360.56 767.05 357.85 773.77 354.77 C 780.49 351.69 788.03 347.38 793.75 343.75 C 799.48 340.13 806.84 334.34 810.75 329.75 C 814.66 325.17 825.35 317.69 823.00 313.00
C 824.22 319.14 812.30 318.41 808.02 320.02 C 803.75 321.63 792.56 320.72 787.00 321.00 C 781.44 321.28 774.32 319.32 769.00 318.00 Z" data-index="17"></path>
</g>
<g fill="None" fill-opacity="0.0" stroke="#079000" stroke-opacity="1.00" stroke-width="0.3"><path d="
M 756.00 317.00 
C 758.56 318.20 761.41 316.89 763.93 319.07 C 766.45 321.26 770.30 317.85 769.00 318.00
C 765.78 317.20 762.90 316.83 760.00 315.00
C 760.00 315.00 759.45 315.15 759.00 315.00
C 758.94 316.44 760.92 315.74 761.00 317.00
C 759.34 316.94 757.66 317.08 756.00 317.00 Z" data-index="18"></path>
</g>
<g fill="None" fill-opacity="0.0" stroke="#E1FCD0" stroke-opacity="1.00" stroke-width="0.3"><path d="
M 621.00 334.00 
C 621.29 334.76 622.58 336.25 623.00 337.00
C 622.77 331.12 619.52 325.63 617.00 321.00
C 618.57 325.25 619.43 329.87 621.00 334.00 Z" data-index="19"></path>
</g>
<g fill="None" fill-opacity="0.0" stroke="#A6E58B" stroke-opacity="1.00" stroke-width="0.3"><path d="
M 446.00 336.00 
C 441.66 332.36 437.09 327.09 433.00 323.00
C 436.80 327.45 441.15 332.54 446.00 336.00 Z" data-index="20"></path>
</g>
<g fill="None" fill-opacity="0.0" stroke="#CFFAB6" stroke-opacity="1.00" stroke-width="0.3"><path d="
M 623.00 339.00 
C 623.55 342.36 623.78 345.44 624.00 349.00
C 624.18 349.33 624.89 349.74 625.00 350.00
C 625.37 346.87 626.39 344.00 627.00 341.00
C 625.05 343.24 623.42 339.13 623.00 338.00
C 623.00 338.00 622.92 338.51 623.00 339.00 Z" data-index="21"></path>
</g>
<g fill="None" fill-opacity="0.0" stroke="#40A71D" stroke-opacity="1.00" stroke-width="0.3"><path d="
M 624.00 349.00 
C 623.78 345.44 623.55 342.36 623.00 339.00
C 621.33 341.17 622.75 346.74 624.00 349.00 Z" data-index="22"></path>
</g>
<g fill="None" fill-opacity="0.0" stroke="#AFEBA3" stroke-opacity="1.00" stroke-width="0.3"><path d="
M 544.00 365.00 
C 544.50 365.00 545.00 365.00 545.00 365.00
C 536.10 363.85 525.66 364.19 516.00 364.00
C 524.56 365.04 534.67 365.00 544.00 365.00 Z" data-index="23"></path>
</g>
<g fill="None" fill-opacity="0.0" stroke="#94DD8B" stroke-opacity="1.00" stroke-width="0.3"><path d="
M 700.00 365.00 
C 710.64 364.59 722.03 364.96 732.00 364.00
C 721.39 364.00 709.89 363.59 700.00 365.00 Z" data-index="24"></path>
</g>
<g fill="None" fill-opacity="0.0" stroke="#EDFFE5" stroke-opacity="1.00" stroke-width="0.3"><path d="
M 551.00 366.00 
C 549.38 365.75 547.37 364.74 545.00 365.00
C 545.00 365.00 544.50 365.00 544.00 365.00
C 545.64 365.16 548.68 365.86 551.00 366.00 Z" data-index="25"></path>
</g>
<g fill="None" fill-opacity="0.0" stroke="#9BF099" stroke-opacity="1.00" stroke-width="0.3"><path d="
M 671.00 374.00 
C 671.84 374.00 673.20 374.24 674.00 374.00
C 675.45 373.56 675.03 371.93 676.00 371.00
C 674.43 371.69 672.36 373.59 671.00 374.00 Z" data-index="26"></path>
</g>
<g fill="None" fill-opacity="0.0" stroke="#9FB917" stroke-opacity="1.00" stroke-width="0.3"><path d="
M 662.00 377.00 
C 667.92 378.38 663.74 387.68 665.00 392.00
C 662.14 391.65 659.61 392.27 657.00 393.00
C 658.32 402.50 655.09 413.93 659.00 423.00
C 657.07 424.26 655.09 426.00 654.00 428.00
C 656.24 426.51 658.44 422.84 660.75 421.75 C 663.06 420.66 664.88 413.71 667.00 414.00
C 667.00 410.02 666.71 404.86 667.00 401.00 C 667.29 397.14 666.29 390.36 667.00 387.00 C 667.71 383.64 664.94 375.66 668.00 374.00
C 665.71 374.42 663.84 376.24 662.00 377.00 Z" data-index="27"></path>
</g>
<g fill="None" fill-opacity="0.0" stroke="#F5FEE4" stroke-opacity="1.00" stroke-width="0.3">
</g>
<g fill="None" fill-opacity="0.0" stroke="#E4FD90" stroke-opacity="1.00" stroke-width="0.3"><path d="
M 583.00 381.00 
C 583.00 380.00 583.00 379.00 583.00 378.00
C 583.00 377.50 583.00 377.00 583.00 377.00
C 582.52 375.97 581.08 375.38 580.00 375.00
C 581.35 376.07 582.76 379.74 583.00 381.00 Z" data-index="29"></path>
</g>
<g fill="None" fill-opacity="0.0" stroke="#C3D201" stroke-opacity="1.00" stroke-width="0.3"><path d="
M 583.00 378.00 
C 594.63 377.01 585.04 390.61 594.00 392.00
C 594.64 403.72 592.77 417.54 595.00 427.00
C 609.91 438.77 638.35 438.41 654.00 428.00
C 655.09 426.00 657.07 424.26 659.00 423.00
C 655.09 413.93 658.32 402.50 657.00 393.00
C 659.61 392.27 662.14 391.65 665.00 392.00
C 663.74 387.68 667.92 378.38 662.00 377.00
C 646.15 383.53 634.41 394.34 629.00 411.00
C 627.88 414.44 627.60 418.45 627.00 422.00
C 626.86 424.10 627.71 427.23 625.00 428.00
C 621.98 417.81 619.29 401.85 612.30 393.70 C 605.32 385.55 594.37 374.76 583.00 377.00
C 583.00 377.00 583.00 377.50 583.00 378.00 Z" data-index="30"></path>
</g>
<g fill="None" fill-opacity="0.0" stroke="#9DB206" stroke-opacity="1.00" stroke-width="0.3"><path d="
M 583.00 381.00 
C 583.00 391.33 583.00 401.67 583.00 412.00
C 584.11 417.36 590.62 423.54 595.00 427.00
C 592.77 417.54 594.64 403.72 594.00 392.00
C 585.04 390.61 594.63 377.01 583.00 378.00
C 583.00 379.00 583.00 380.00 583.00 381.00 Z" data-index="31"></path>
</g>
<g fill="None" fill-opacity="0.0" stroke="#004A06" stroke-opacity="1.00" stroke-width="0.3"><path d="
M 622.00 394.00 
C 622.08 398.44 623.23 401.89 624.00 406.00
C 628.09 402.24 621.94 392.69 622.00 387.00
C 622.03 389.33 621.96 391.67 622.00 394.00 Z" data-index="32"></path>
</g>
<g fill="None" fill-opacity="0.0" stroke="#05622F" stroke-opacity="1.00" stroke-width="0.3"><path d="
M 583.00 416.00 
C 584.63 423.39 595.66 427.33 601.00 432.00
C 598.94 442.22 596.94 454.12 602.00 464.00
C 593.23 460.72 586.50 453.00 583.00 446.00
C 583.00 446.50 583.00 447.50 583.00 448.00
C 585.16 454.53 593.96 462.11 600.00 465.00
C 610.59 470.06 623.22 470.61 635.00 469.00
C 634.65 468.92 633.14 467.55 633.00 467.00
C 638.86 467.00 642.98 462.17 649.00 463.00
C 653.53 454.29 650.36 445.79 649.00 435.00
C 653.33 429.19 662.27 423.80 667.00 417.00
C 667.00 417.00 667.00 416.50 667.00 416.00
C 667.00 415.50 667.00 414.50 667.00 414.00
C 664.88 413.71 663.06 420.66 660.75 421.75 C 658.44 422.84 656.24 426.51 654.00 428.00
C 638.35 438.41 609.91 438.77 595.00 427.00
C 590.62 423.54 584.11 417.36 583.00 412.00
C 583.00 413.33 583.00 414.67 583.00 416.00 Z" data-index="33"></path>
</g>
<g fill="None" fill-opacity="0.0" stroke="#004A2D" stroke-opacity="1.00" stroke-width="0.3"><path d="
M 583.00 446.00 
C 586.50 453.00 593.23 460.72 602.00 464.00
C 596.94 454.12 598.94 442.22 601.00 432.00
C 595.66 427.33 584.63 423.39 583.00 416.00
C 583.00 426.00 583.00 436.00 583.00 446.00 Z" data-index="34"></path>
</g>
<g fill="None" fill-opacity="0.0" stroke="#014E32" stroke-opacity="1.00" stroke-width="0.3"><path d="
M 635.00 469.00 
C 637.38 468.67 639.70 467.73 642.00 467.00
C 644.29 466.00 646.18 464.46 649.00 464.00
C 649.49 463.92 650.00 464.00 650.00 464.00
C 651.64 461.38 654.39 461.08 657.00 460.00
C 657.60 459.75 658.47 459.32 659.00 459.00
C 661.54 456.63 663.67 452.39 667.00 451.00
C 667.00 439.67 667.00 428.33 667.00 417.00
C 662.27 423.80 653.33 429.19 649.00 435.00
C 650.36 445.79 653.53 454.29 649.00 463.00
C 642.98 462.17 638.86 467.00 633.00 467.00
C 633.14 467.55 634.65 468.92 635.00 469.00 Z" data-index="35"></path>
</g>
<g fill="None" fill-opacity="0.0" stroke="#8BAE0B" stroke-opacity="1.00" stroke-width="0.3"><path d="
M 583.00 480.00 
C 584.18 484.75 589.95 490.99 594.00 494.00
C 597.20 493.40 594.64 485.14 595.98 481.97 C 597.32 478.81 595.02 467.87 596.00 464.00
C 597.54 463.63 598.40 465.43 600.00 465.00
C 593.96 462.11 585.16 454.53 583.00 448.00
C 583.00 458.67 583.00 469.33 583.00 480.00 Z" data-index="36"></path>
</g>
<g fill="None" fill-opacity="0.0" stroke="#45791B" stroke-opacity="1.00" stroke-width="0.3"><path d="
M 659.00 459.00 
C 662.01 457.17 664.16 453.98 667.00 452.00
C 667.00 452.00 667.00 451.50 667.00 451.00
C 663.67 452.39 661.54 456.63 659.00 459.00 Z" data-index="37"></path>
</g>
<g fill="None" fill-opacity="0.0" stroke="#8AAE13" stroke-opacity="1.00" stroke-width="0.3"><path d="
M 659.00 459.00 
C 658.47 459.32 657.60 459.75 657.00 460.00
C 656.80 460.40 657.00 461.00 657.00 461.00
C 654.13 465.19 659.03 468.89 657.99 474.01 C 656.95 479.12 658.19 485.80 660.00 490.00
C 658.07 491.26 656.09 493.00 655.00 495.00
C 657.64 493.24 662.27 489.52 664.00 487.00
C 664.41 486.30 667.07 481.74 667.00 482.00
C 667.00 472.00 667.00 462.00 667.00 452.00
C 664.16 453.98 662.01 457.17 659.00 459.00 Z" data-index="38"></path>
</g>
<g fill="None" fill-opacity="0.0" stroke="#285D06" stroke-opacity="1.00" stroke-width="0.3"><path d="
M 650.00 464.00 
C 652.58 463.43 654.30 461.54 657.00 461.00
C 657.00 461.00 656.80 460.40 657.00 460.00
C 654.39 461.08 651.64 461.38 650.00 464.00 Z" data-index="39"></path>
</g>
<g fill="None" fill-opacity="0.0" stroke="#BCCC02" stroke-opacity="1.00" stroke-width="0.3"><path d="
M 650.00 464.00 
C 650.00 464.00 649.49 463.92 649.00 464.00
C 646.94 465.77 644.64 466.17 642.00 467.00
C 639.70 467.73 637.38 468.67 635.00 469.00
C 623.22 470.61 610.59 470.06 600.00 465.00
C 598.40 465.43 597.54 463.63 596.00 464.00
C 595.02 467.87 597.32 478.81 595.98 481.97 C 594.64 485.14 597.20 493.40 594.00 494.00
C 611.51 507.02 636.94 507.02 655.00 495.00
C 656.09 493.00 658.07 491.26 660.00 490.00
C 658.19 485.80 656.95 479.12 657.99 474.01 C 659.03 468.89 654.13 465.19 657.00 461.00
C 654.30 461.54 652.58 463.43 650.00 464.00 Z" data-index="40"></path>
</g>
<g fill="None" fill-opacity="0.0" stroke="#1C610F" stroke-opacity="1.00" stroke-width="0.3"><path d="
M 642.00 467.00 
C 644.64 466.17 646.94 465.77 649.00 464.00
C 646.18 464.46 644.29 466.00 642.00 467.00 Z" data-index="41"></path>
</g>
<g fill="None" fill-opacity="0.0" stroke="#025E30" stroke-opacity="1.00" stroke-width="0.3"><path d="
M 583.00 483.00 
C 585.29 490.66 594.87 495.82 601.00 500.00
C 599.67 502.50 595.26 499.43 594.00 502.00
C 597.76 510.36 591.85 523.14 601.00 530.00
C 593.13 527.58 586.57 519.81 583.00 513.00
C 583.00 514.00 583.00 515.00 583.00 516.00
C 584.74 521.15 592.70 527.26 597.00 530.00
C 602.67 533.62 609.55 534.76 616.00 536.00
C 615.39 535.85 613.42 534.73 613.00 534.00
C 627.60 534.92 640.43 533.09 652.00 526.00
C 653.07 518.30 652.12 510.68 652.00 503.00 C 651.87 495.32 660.03 493.58 664.00 487.00
C 662.27 489.52 657.64 493.24 655.00 495.00
C 636.94 507.02 611.51 507.02 594.00 494.00
C 589.95 490.99 584.18 484.75 583.00 480.00
C 583.00 481.00 583.00 482.00 583.00 483.00 Z" data-index="42"></path>
</g>
<g fill="None" fill-opacity="0.0" stroke="#024D33" stroke-opacity="1.00" stroke-width="0.3"><path d="
M 664.00 487.00 
C 660.03 493.58 651.87 495.32 652.00 503.00 C 652.12 510.68 653.07 518.30 652.00 526.00
C 640.43 533.09 627.60 534.92 613.00 534.00
C 613.42 534.73 615.39 535.85 616.00 536.00
C 620.93 537.19 629.97 536.77 635.00 536.00
C 642.04 534.01 649.78 532.01 656.00 528.00
C 658.33 526.50 666.17 520.34 667.00 518.00
C 667.00 506.00 667.00 494.00 667.00 482.00
C 667.07 481.74 664.41 486.30 664.00 487.00 Z" data-index="43"></path>
</g>
<g fill="None" fill-opacity="0.0" stroke="#01452E" stroke-opacity="1.00" stroke-width="0.3"><path d="
M 583.00 513.00 
C 586.57 519.81 593.13 527.58 601.00 530.00
C 591.85 523.14 597.76 510.36 594.00 502.00
C 595.26 499.43 599.67 502.50 601.00 500.00
C 594.87 495.82 585.29 490.66 583.00 483.00
C 583.00 493.00 583.00 503.00 583.00 513.00 Z" data-index="44"></path>
</g>
<g fill="None" fill-opacity="0.0" stroke="#2F7609" stroke-opacity="1.00" stroke-width="0.3"><path d="
M 592.00 557.00 
C 591.49 555.89 591.49 550.95 590.00 549.00
C 596.28 549.09 593.64 534.70 594.00 529.00
C 594.94 529.57 595.82 530.15 597.00 530.00
C 592.70 527.26 584.74 521.15 583.00 516.00
C 583.00 531.19 582.90 544.77 592.00 557.00 Z" data-index="45"></path>
</g>
<g fill="None" fill-opacity="0.0" stroke="#266C14" stroke-opacity="1.00" stroke-width="0.3"><path d="
M 656.00 528.00 
C 657.28 527.75 658.44 526.37 660.00 527.00
C 661.11 533.89 660.49 541.85 663.00 548.00
C 663.50 546.82 664.62 544.97 665.00 544.00
C 666.92 535.47 667.00 527.07 667.00 518.00
C 666.17 520.34 658.33 526.50 656.00 528.00 Z" data-index="46"></path>
</g>
<g fill="None" fill-opacity="0.0" stroke="#4A9404" stroke-opacity="1.00" stroke-width="0.3"><path d="
M 656.00 528.00 
C 649.78 532.01 642.04 534.01 635.00 536.00
C 629.26 537.62 621.66 537.09 616.00 536.00
C 609.55 534.76 602.67 533.62 597.00 530.00
C 595.82 530.15 594.94 529.57 594.00 529.00
C 593.64 534.70 596.28 549.09 590.00 549.00
C 591.49 550.95 591.49 555.89 592.00 557.00
C 609.28 580.24 641.67 573.56 659.00 555.00
C 660.63 552.80 661.94 550.50 663.00 548.00
C 660.49 541.85 661.11 533.89 660.00 527.00
C 658.44 526.37 657.28 527.75 656.00 528.00 Z" data-index="47"></path>
</g>
<g fill="None" fill-opacity="0.0" stroke="#387927" stroke-opacity="1.00" stroke-width="0.3"><path d="
M 635.00 536.00 
C 629.97 536.77 620.93 537.19 616.00 536.00
C 621.66 537.09 629.26 537.62 635.00 536.00 Z" data-index="48"></path>
</g>
<g fill="None" fill-opacity="0.0" stroke="#C7EAC2" stroke-opacity="1.00" stroke-width="0.3"><path d="
M 663.00 548.00 
C 661.94 550.50 660.63 552.80 659.00 555.00
C 662.27 551.50 663.93 548.76 665.00 544.00
C 664.62 544.97 663.50 546.82 663.00 548.00 Z" data-index="49"></path>
</g>
<g fill="#FEFEFE" fill-opacity="1.00" stroke="None">

</g>
<g fill="#C4F99F" fill-opacity="1.00" stroke="None">
<path d="
M 521.00 262.00 
C 526.65 261.89 532.35 261.89 538.00 262.00
C 532.64 261.35 526.43 261.34 521.00 262.00 Z" data-index="51"></path>
</g>
<g fill="#71D60C" fill-opacity="1.00" stroke="None">
<path d="
M 690.00 267.00 
C 686.28 268.41 683.00 269.83 680.00 272.00
C 673.52 276.68 668.13 280.71 661.75 285.75 C 655.38 290.80 652.45 296.13 646.25 302.25 C 640.04 308.36 640.43 319.01 634.00 323.00
C 634.53 324.88 632.52 331.13 636.00 329.00
C 646.17 311.33 657.53 304.70 677.01 299.01 C 696.48 293.32 720.22 300.35 739.00 305.00
C 753.98 308.71 772.01 303.07 786.00 309.00
C 778.12 313.81 767.22 309.83 760.00 315.00
C 762.90 316.83 765.78 317.20 769.00 318.00
C 774.32 319.32 781.44 321.28 787.00 321.00 C 792.56 320.72 803.75 321.63 808.02 320.02 C 812.30 318.41 824.22 319.14 823.00 313.00
C 819.37 305.75 806.45 302.88 800.75 296.25 C 795.04 289.62 786.25 285.81 779.08 279.92 C 771.91 274.03 763.14 270.83 754.07 266.93 C 745.01 263.03 732.69 261.20 722.00 261.00 C 711.31 260.80 699.81 263.29 690.00 267.00 Z" data-index="52"></path>
</g>
<g fill="#70D50C" fill-opacity="1.00" stroke="None">
<path d="
M 432.00 308.00 
C 431.75 308.22 432.00 309.00 432.00 309.00
C 430.96 310.52 429.77 311.38 428.00 312.00
C 431.38 319.63 442.17 320.47 451.00 321.00 C 459.83 321.52 471.88 321.61 480.00 318.00
C 483.08 317.09 485.97 316.31 489.00 315.00
C 490.41 312.93 483.35 311.22 479.98 311.02 C 476.60 310.83 469.45 310.42 466.00 309.00
C 478.93 304.25 494.66 306.60 509.00 306.00
C 525.35 303.97 542.06 294.00 560.00 297.00 C 577.94 300.00 589.04 303.67 603.25 314.75 C 617.46 325.83 616.55 341.08 624.00 355.00
C 623.98 354.61 624.87 351.08 625.00 350.00
C 624.89 349.74 624.18 349.33 624.00 349.00
C 622.75 346.74 621.33 341.17 623.00 339.00
C 622.92 338.51 623.00 338.00 623.00 338.00
C 623.00 338.00 623.02 337.50 623.00 337.00
C 622.58 336.25 621.29 334.76 621.00 334.00
C 618.84 331.06 610.72 313.96 611.00 309.00
C 610.82 308.67 610.32 308.19 610.00 308.00
C 605.71 305.44 604.20 299.82 600.75 296.25 C 597.30 292.68 592.55 289.19 590.00 285.00
C 589.68 284.47 589.35 283.42 589.00 283.00
C 574.78 271.77 556.49 262.37 538.00 262.00
C 532.35 261.89 526.65 261.89 521.00 262.00
C 504.17 262.34 484.14 269.77 471.23 280.23 C 458.32 290.69 444.23 297.31 432.00 308.00 Z" data-index="53"></path>
</g>
<g fill="#DCFACB" fill-opacity="1.00" stroke="None">

</g>
<g fill="#50B427" fill-opacity="1.00" stroke="None">
<path d="
M 661.00 284.00 
C 642.35 298.72 631.51 318.83 627.00 341.00
C 626.39 344.00 625.37 346.87 625.00 350.00
C 624.87 351.08 623.98 354.61 624.00 355.00
C 627.07 360.74 627.92 349.08 629.77 344.77 C 631.62 340.46 633.44 333.45 636.00 329.00
C 632.52 331.13 634.53 324.88 634.00 323.00
C 640.43 319.01 640.04 308.36 646.25 302.25 C 652.45 296.13 655.38 290.80 661.75 285.75 C 668.13 280.71 673.52 276.68 680.00 272.00
C 673.16 275.49 667.23 279.08 661.00 284.00 Z" data-index="55"></path>
</g>
<g fill="#C4F6B9" fill-opacity="1.00" stroke="None">
<path d="
M 590.00 285.00 
C 593.88 289.16 599.40 292.70 603.00 297.00
C 599.40 291.95 593.90 286.87 589.00 283.00
C 589.35 283.42 589.68 284.47 590.00 285.00 Z" data-index="56"></path>
</g>
<g fill="#51A930" fill-opacity="1.00" stroke="None">
<path d="
M 610.00 308.00 
C 609.49 307.46 609.37 306.59 609.00 306.00
C 607.13 302.99 605.06 299.88 603.00 297.00
C 599.40 292.70 593.88 289.16 590.00 285.00
C 592.55 289.19 597.30 292.68 600.75 296.25 C 604.20 299.82 605.71 305.44 610.00 308.00 Z" data-index="57"></path>
</g>
<g fill="#006806" fill-opacity="1.00" stroke="None">
<path d="
M 509.00 306.00 
C 502.56 309.08 495.72 312.10 489.00 315.00
C 485.97 316.31 483.08 317.09 480.00 318.00
C 479.35 318.46 478.36 319.16 478.00 320.00
C 483.54 319.81 488.64 317.97 494.00 317.00
C 499.52 315.13 506.90 310.48 513.00 310.00 C 519.11 309.53 537.09 309.18 525.00 307.00
C 575.34 301.01 613.82 349.09 622.00 394.00
C 621.96 391.67 622.03 389.33 622.00 387.00
C 621.94 392.69 628.09 402.24 624.00 406.00
C 624.90 410.82 626.91 417.63 627.00 422.00
C 627.60 418.45 627.88 414.44 629.00 411.00
C 628.41 406.81 625.97 396.70 628.98 389.98 C 631.99 383.25 632.33 375.79 635.33 369.33 C 638.33 362.86 641.20 356.65 644.75 350.75 C 648.31 344.86 650.66 339.49 655.75 334.75 C 660.84 330.01 664.13 325.73 669.75 321.75 C 675.37 317.77 681.24 314.14 688.07 312.07 C 694.91 310.01 702.38 307.05 710.00 307.00 C 717.62 306.95 728.50 306.16 735.67 308.33 C 742.84 310.50 749.29 312.41 755.00 317.00
C 755.50 316.95 756.00 317.00 756.00 317.00
C 757.66 317.08 759.34 316.94 761.00 317.00
C 760.92 315.74 758.94 316.44 759.00 315.00
C 751.63 312.64 745.70 308.10 739.00 305.00
C 720.22 300.35 696.48 293.32 677.01 299.01 C 657.53 304.70 646.17 311.33 636.00 329.00
C 633.44 333.45 631.62 340.46 629.77 344.77 C 627.92 349.08 627.07 360.74 624.00 355.00
C 616.55 341.08 617.46 325.83 603.25 314.75 C 589.04 303.67 577.94 300.00 560.00 297.00 C 542.06 294.00 525.35 303.97 509.00 306.00 Z" data-index="58"></path>
</g>
<g fill="#37B503" fill-opacity="1.00" stroke="None">
<path d="
M 759.00 315.00 
C 759.45 315.15 760.00 315.00 760.00 315.00
C 767.22 309.83 778.12 313.81 786.00 309.00
C 772.01 303.07 753.98 308.71 739.00 305.00
C 745.70 308.10 751.63 312.64 759.00 315.00 Z" data-index="59"></path>
</g>
<g fill="#35B702" fill-opacity="1.00" stroke="None">
<path d="
M 489.00 315.00 
C 495.72 312.10 502.56 309.08 509.00 306.00
C 494.66 306.60 478.93 304.25 466.00 309.00
C 469.45 310.42 476.60 310.83 479.98 311.02 C 483.35 311.22 490.41 312.93 489.00 315.00 Z" data-index="60"></path>
</g>
<g fill="#089504" fill-opacity="1.00" stroke="None">
<path d="
M 494.00 317.00 
C 513.28 314.55 534.15 313.38 552.00 321.00
C 535.37 338.03 514.48 354.98 491.00 360.00
C 499.23 361.85 507.37 363.83 516.00 364.00
C 525.66 364.19 536.10 363.85 545.00 365.00
C 547.37 364.74 549.38 365.75 551.00 366.00
C 561.76 366.64 570.39 371.58 580.00 375.00
C 581.08 375.38 582.52 375.97 583.00 377.00
C 594.37 374.76 605.32 385.55 612.30 393.70 C 619.29 401.85 621.98 417.81 625.00 428.00
C 627.71 427.23 626.86 424.10 627.00 422.00
C 626.91 417.63 624.90 410.82 624.00 406.00
C 623.23 401.89 622.08 398.44 622.00 394.00
C 613.82 349.09 575.34 301.01 525.00 307.00
C 537.09 309.18 519.11 309.53 513.00 310.00 C 506.90 310.48 499.52 315.13 494.00 317.00 Z" data-index="61"></path>
</g>
<g fill="#C9F5C7" fill-opacity="1.00" stroke="None">
<path d="
M 610.00 308.00 
C 610.32 308.19 610.82 308.67 611.00 309.00
C 611.63 310.13 612.41 311.08 613.00 312.00
C 611.65 309.04 611.21 308.54 609.00 306.00
C 609.37 306.59 609.49 307.46 610.00 308.00 Z" data-index="62"></path>
</g>
<g fill="#EAFCD7" fill-opacity="1.00" stroke="None">
<path d="
M 455.00 343.00 
C 452.09 340.83 449.03 338.17 446.00 336.00
C 441.15 332.54 436.80 327.45 433.00 323.00
C 430.00 319.49 426.83 316.18 425.00 312.00
C 427.38 311.03 429.39 309.25 432.00 309.00
C 432.00 309.00 431.75 308.22 432.00 308.00
C 430.90 306.84 419.76 310.96 425.25 315.75 C 430.73 320.54 428.41 319.35 434.25 325.75 C 440.09 332.15 447.65 339.03 455.00 343.00 Z" data-index="63"></path>
</g>
<g fill="#059402" fill-opacity="1.00" stroke="None">
<path d="
M 629.00 411.00 
C 634.41 394.34 646.15 383.53 662.00 377.00
C 663.84 376.24 665.71 374.42 668.00 374.00
C 668.92 373.83 670.07 374.00 671.00 374.00
C 672.36 373.59 674.43 371.69 676.00 371.00
C 683.50 367.69 691.67 365.32 700.00 365.00
C 709.89 363.59 721.39 364.00 732.00 364.00
C 738.21 364.00 744.11 363.14 750.00 362.00
C 743.26 360.82 736.88 352.39 729.92 350.08 C 722.97 347.76 718.80 339.17 712.75 335.25 C 706.70 331.33 698.88 326.82 696.00 320.00
C 714.69 313.27 735.23 315.24 755.00 317.00
C 749.29 312.41 742.84 310.50 735.67 308.33 C 728.50 306.16 717.62 306.95 710.00 307.00 C 702.38 307.05 694.91 310.01 688.07 312.07 C 681.24 314.14 675.37 317.77 669.75 321.75 C 664.13 325.73 660.84 330.01 655.75 334.75 C 650.66 339.49 648.31 344.86 644.75 350.75 C 641.20 356.65 638.33 362.86 635.33 369.33 C 632.33 375.79 631.99 383.25 628.98 389.98 C 625.97 396.70 628.41 406.81 629.00 411.00 Z" data-index="64"></path>
</g>
<g fill="#20AF02" fill-opacity="1.00" stroke="None">
<path d="
M 433.00 323.00 
C 437.09 327.09 441.66 332.36 446.00 336.00
C 449.03 338.17 452.09 340.83 455.00 343.00
C 466.81 349.37 477.76 357.02 491.00 360.00
C 514.48 354.98 535.37 338.03 552.00 321.00
C 534.15 313.38 513.28 314.55 494.00 317.00
C 488.64 317.97 483.54 319.81 478.00 320.00
C 478.36 319.16 479.35 318.46 480.00 318.00
C 471.88 321.61 459.83 321.52 451.00 321.00 C 442.17 320.47 431.38 319.63 428.00 312.00
C 429.77 311.38 430.96 310.52 432.00 309.00
C 429.39 309.25 427.38 311.03 425.00 312.00
C 426.83 316.18 430.00 319.49 433.00 323.00 Z" data-index="65"></path>
</g>
<g fill="#51B437" fill-opacity="1.00" stroke="None">
<path d="
M 621.00 334.00 
C 619.43 329.87 618.57 325.25 617.00 321.00
C 615.88 317.97 614.79 314.81 613.00 312.00
C 612.41 311.08 611.63 310.13 611.00 309.00
C 610.72 313.96 618.84 331.06 621.00 334.00 Z" data-index="66"></path>
</g>
<g fill="#20B005" fill-opacity="1.00" stroke="None">
<path d="
M 769.00 318.00 
C 770.30 317.85 766.45 321.26 763.93 319.07 C 761.41 316.89 758.56 318.20 756.00 317.00
C 756.00 317.00 755.50 316.95 755.00 317.00
C 735.23 315.24 714.69 313.27 696.00 320.00
C 698.88 326.82 706.70 331.33 712.75 335.25 C 718.80 339.17 722.97 347.76 729.92 350.08 C 736.88 352.39 743.26 360.82 750.00 362.00
C 757.45 360.56 767.05 357.85 773.77 354.77 C 780.49 351.69 788.03 347.38 793.75 343.75 C 799.48 340.13 806.84 334.34 810.75 329.75 C 814.66 325.17 825.35 317.69 823.00 313.00
C 824.22 319.14 812.30 318.41 808.02 320.02 C 803.75 321.63 792.56 320.72 787.00 321.00 C 781.44 321.28 774.32 319.32 769.00 318.00 Z" data-index="67"></path>
</g>
<g fill="#079000" fill-opacity="1.00" stroke="None">
<path d="
M 756.00 317.00 
C 758.56 318.20 761.41 316.89 763.93 319.07 C 766.45 321.26 770.30 317.85 769.00 318.00
C 765.78 317.20 762.90 316.83 760.00 315.00
C 760.00 315.00 759.45 315.15 759.00 315.00
C 758.94 316.44 760.92 315.74 761.00 317.00
C 759.34 316.94 757.66 317.08 756.00 317.00 Z" data-index="68"></path>
</g>
<g fill="#E1FCD0" fill-opacity="1.00" stroke="None">
<path d="
M 621.00 334.00 
C 621.29 334.76 622.58 336.25 623.00 337.00
C 622.77 331.12 619.52 325.63 617.00 321.00
C 618.57 325.25 619.43 329.87 621.00 334.00 Z" data-index="69"></path>
</g>
<g fill="#A6E58B" fill-opacity="1.00" stroke="None">
<path d="
M 446.00 336.00 
C 441.66 332.36 437.09 327.09 433.00 323.00
C 436.80 327.45 441.15 332.54 446.00 336.00 Z" data-index="70"></path>
</g>
<g fill="#CFFAB6" fill-opacity="1.00" stroke="None">
<path d="
M 623.00 339.00 
C 623.55 342.36 623.78 345.44 624.00 349.00
C 624.18 349.33 624.89 349.74 625.00 350.00
C 625.37 346.87 626.39 344.00 627.00 341.00
C 625.05 343.24 623.42 339.13 623.00 338.00
C 623.00 338.00 622.92 338.51 623.00 339.00 Z" data-index="71"></path>
</g>
<g fill="#40A71D" fill-opacity="1.00" stroke="None">
<path d="
M 624.00 349.00 
C 623.78 345.44 623.55 342.36 623.00 339.00
C 621.33 341.17 622.75 346.74 624.00 349.00 Z" data-index="72"></path>
</g>
<g fill="#AFEBA3" fill-opacity="1.00" stroke="None">
<path d="
M 544.00 365.00 
C 544.50 365.00 545.00 365.00 545.00 365.00
C 536.10 363.85 525.66 364.19 516.00 364.00
C 524.56 365.04 534.67 365.00 544.00 365.00 Z" data-index="73"></path>
</g>
<g fill="#94DD8B" fill-opacity="1.00" stroke="None">
<path d="
M 700.00 365.00 
C 710.64 364.59 722.03 364.96 732.00 364.00
C 721.39 364.00 709.89 363.59 700.00 365.00 Z" data-index="74"></path>
</g>
<g fill="#EDFFE5" fill-opacity="1.00" stroke="None">
<path d="
M 551.00 366.00 
C 549.38 365.75 547.37 364.74 545.00 365.00
C 545.00 365.00 544.50 365.00 544.00 365.00
C 545.64 365.16 548.68 365.86 551.00 366.00 Z" data-index="75"></path>
</g>
<g fill="#9BF099" fill-opacity="1.00" stroke="None">
<path d="
M 671.00 374.00 
C 671.84 374.00 673.20 374.24 674.00 374.00
C 675.45 373.56 675.03 371.93 676.00 371.00
C 674.43 371.69 672.36 373.59 671.00 374.00 Z" data-index="76"></path>
</g>
<g fill="#9FB917" fill-opacity="1.00" stroke="None">
<path d="
M 662.00 377.00 
C 667.92 378.38 663.74 387.68 665.00 392.00
C 662.14 391.65 659.61 392.27 657.00 393.00
C 658.32 402.50 655.09 413.93 659.00 423.00
C 657.07 424.26 655.09 426.00 654.00 428.00
C 656.24 426.51 658.44 422.84 660.75 421.75 C 663.06 420.66 664.88 413.71 667.00 414.00
C 667.00 410.02 666.71 404.86 667.00 401.00 C 667.29 397.14 666.29 390.36 667.00 387.00 C 667.71 383.64 664.94 375.66 668.00 374.00
C 665.71 374.42 663.84 376.24 662.00 377.00 Z" data-index="77"></path>
</g>
<g fill="#F5FEE4" fill-opacity="1.00" stroke="None">

</g>
<g fill="#E4FD90" fill-opacity="1.00" stroke="None">
<path d="
M 583.00 381.00 
C 583.00 380.00 583.00 379.00 583.00 378.00
C 583.00 377.50 583.00 377.00 583.00 377.00
C 582.52 375.97 581.08 375.38 580.00 375.00
C 581.35 376.07 582.76 379.74 583.00 381.00 Z" data-index="79"></path>
</g>
<g fill="#C3D201" fill-opacity="1.00" stroke="None">
<path d="
M 583.00 378.00 
C 594.63 377.01 585.04 390.61 594.00 392.00
C 594.64 403.72 592.77 417.54 595.00 427.00
C 609.91 438.77 638.35 438.41 654.00 428.00
C 655.09 426.00 657.07 424.26 659.00 423.00
C 655.09 413.93 658.32 402.50 657.00 393.00
C 659.61 392.27 662.14 391.65 665.00 392.00
C 663.74 387.68 667.92 378.38 662.00 377.00
C 646.15 383.53 634.41 394.34 629.00 411.00
C 627.88 414.44 627.60 418.45 627.00 422.00
C 626.86 424.10 627.71 427.23 625.00 428.00
C 621.98 417.81 619.29 401.85 612.30 393.70 C 605.32 385.55 594.37 374.76 583.00 377.00
C 583.00 377.00 583.00 377.50 583.00 378.00 Z" data-index="80"></path>
</g>
<g fill="#9DB206" fill-opacity="1.00" stroke="None">
<path d="
M 583.00 381.00 
C 583.00 391.33 583.00 401.67 583.00 412.00
C 584.11 417.36 590.62 423.54 595.00 427.00
C 592.77 417.54 594.64 403.72 594.00 392.00
C 585.04 390.61 594.63 377.01 583.00 378.00
C 583.00 379.00 583.00 380.00 583.00 381.00 Z" data-index="81"></path>
</g>
<g fill="#004A06" fill-opacity="1.00" stroke="None">
<path d="
M 622.00 394.00 
C 622.08 398.44 623.23 401.89 624.00 406.00
C 628.09 402.24 621.94 392.69 622.00 387.00
C 622.03 389.33 621.96 391.67 622.00 394.00 Z" data-index="82"></path>
</g>
<g fill="#05622F" fill-opacity="1.00" stroke="None">
<path d="
M 583.00 416.00 
C 584.63 423.39 595.66 427.33 601.00 432.00
C 598.94 442.22 596.94 454.12 602.00 464.00
C 593.23 460.72 586.50 453.00 583.00 446.00
C 583.00 446.50 583.00 447.50 583.00 448.00
C 585.16 454.53 593.96 462.11 600.00 465.00
C 610.59 470.06 623.22 470.61 635.00 469.00
C 634.65 468.92 633.14 467.55 633.00 467.00
C 638.86 467.00 642.98 462.17 649.00 463.00
C 653.53 454.29 650.36 445.79 649.00 435.00
C 653.33 429.19 662.27 423.80 667.00 417.00
C 667.00 417.00 667.00 416.50 667.00 416.00
C 667.00 415.50 667.00 414.50 667.00 414.00
C 664.88 413.71 663.06 420.66 660.75 421.75 C 658.44 422.84 656.24 426.51 654.00 428.00
C 638.35 438.41 609.91 438.77 595.00 427.00
C 590.62 423.54 584.11 417.36 583.00 412.00
C 583.00 413.33 583.00 414.67 583.00 416.00 Z" data-index="83"></path>
</g>
<g fill="#004A2D" fill-opacity="1.00" stroke="None">
<path d="
M 583.00 446.00 
C 586.50 453.00 593.23 460.72 602.00 464.00
C 596.94 454.12 598.94 442.22 601.00 432.00
C 595.66 427.33 584.63 423.39 583.00 416.00
C 583.00 426.00 583.00 436.00 583.00 446.00 Z" data-index="84"></path>
</g>
<g fill="#014E32" fill-opacity="1.00" stroke="None">
<path d="
M 635.00 469.00 
C 637.38 468.67 639.70 467.73 642.00 467.00
C 644.29 466.00 646.18 464.46 649.00 464.00
C 649.49 463.92 650.00 464.00 650.00 464.00
C 651.64 461.38 654.39 461.08 657.00 460.00
C 657.60 459.75 658.47 459.32 659.00 459.00
C 661.54 456.63 663.67 452.39 667.00 451.00
C 667.00 439.67 667.00 428.33 667.00 417.00
C 662.27 423.80 653.33 429.19 649.00 435.00
C 650.36 445.79 653.53 454.29 649.00 463.00
C 642.98 462.17 638.86 467.00 633.00 467.00
C 633.14 467.55 634.65 468.92 635.00 469.00 Z" data-index="85"></path>
</g>
<g fill="#8BAE0B" fill-opacity="1.00" stroke="None">
<path d="
M 583.00 480.00 
C 584.18 484.75 589.95 490.99 594.00 494.00
C 597.20 493.40 594.64 485.14 595.98 481.97 C 597.32 478.81 595.02 467.87 596.00 464.00
C 597.54 463.63 598.40 465.43 600.00 465.00
C 593.96 462.11 585.16 454.53 583.00 448.00
C 583.00 458.67 583.00 469.33 583.00 480.00 Z" data-index="86"></path>
</g>
<g fill="#45791B" fill-opacity="1.00" stroke="None">
<path d="
M 659.00 459.00 
C 662.01 457.17 664.16 453.98 667.00 452.00
C 667.00 452.00 667.00 451.50 667.00 451.00
C 663.67 452.39 661.54 456.63 659.00 459.00 Z" data-index="87"></path>
</g>
<g fill="#8AAE13" fill-opacity="1.00" stroke="None">
<path d="
M 659.00 459.00 
C 658.47 459.32 657.60 459.75 657.00 460.00
C 656.80 460.40 657.00 461.00 657.00 461.00
C 654.13 465.19 659.03 468.89 657.99 474.01 C 656.95 479.12 658.19 485.80 660.00 490.00
C 658.07 491.26 656.09 493.00 655.00 495.00
C 657.64 493.24 662.27 489.52 664.00 487.00
C 664.41 486.30 667.07 481.74 667.00 482.00
C 667.00 472.00 667.00 462.00 667.00 452.00
C 664.16 453.98 662.01 457.17 659.00 459.00 Z" data-index="88"></path>
</g>
<g fill="#285D06" fill-opacity="1.00" stroke="None">
<path d="
M 650.00 464.00 
C 652.58 463.43 654.30 461.54 657.00 461.00
C 657.00 461.00 656.80 460.40 657.00 460.00
C 654.39 461.08 651.64 461.38 650.00 464.00 Z" data-index="89"></path>
</g>
<g fill="#BCCC02" fill-opacity="1.00" stroke="None">
<path d="
M 650.00 464.00 
C 650.00 464.00 649.49 463.92 649.00 464.00
C 646.94 465.77 644.64 466.17 642.00 467.00
C 639.70 467.73 637.38 468.67 635.00 469.00
C 623.22 470.61 610.59 470.06 600.00 465.00
C 598.40 465.43 597.54 463.63 596.00 464.00
C 595.02 467.87 597.32 478.81 595.98 481.97 C 594.64 485.14 597.20 493.40 594.00 494.00
C 611.51 507.02 636.94 507.02 655.00 495.00
C 656.09 493.00 658.07 491.26 660.00 490.00
C 658.19 485.80 656.95 479.12 657.99 474.01 C 659.03 468.89 654.13 465.19 657.00 461.00
C 654.30 461.54 652.58 463.43 650.00 464.00 Z" data-index="90"></path>
</g>
<g fill="#1C610F" fill-opacity="1.00" stroke="None">
<path d="
M 642.00 467.00 
C 644.64 466.17 646.94 465.77 649.00 464.00
C 646.18 464.46 644.29 466.00 642.00 467.00 Z" data-index="91"></path>
</g>
<g fill="#025E30" fill-opacity="1.00" stroke="None">
<path d="
M 583.00 483.00 
C 585.29 490.66 594.87 495.82 601.00 500.00
C 599.67 502.50 595.26 499.43 594.00 502.00
C 597.76 510.36 591.85 523.14 601.00 530.00
C 593.13 527.58 586.57 519.81 583.00 513.00
C 583.00 514.00 583.00 515.00 583.00 516.00
C 584.74 521.15 592.70 527.26 597.00 530.00
C 602.67 533.62 609.55 534.76 616.00 536.00
C 615.39 535.85 613.42 534.73 613.00 534.00
C 627.60 534.92 640.43 533.09 652.00 526.00
C 653.07 518.30 652.12 510.68 652.00 503.00 C 651.87 495.32 660.03 493.58 664.00 487.00
C 662.27 489.52 657.64 493.24 655.00 495.00
C 636.94 507.02 611.51 507.02 594.00 494.00
C 589.95 490.99 584.18 484.75 583.00 480.00
C 583.00 481.00 583.00 482.00 583.00 483.00 Z" data-index="92"></path>
</g>
<g fill="#024D33" fill-opacity="1.00" stroke="None">
<path d="
M 664.00 487.00 
C 660.03 493.58 651.87 495.32 652.00 503.00 C 652.12 510.68 653.07 518.30 652.00 526.00
C 640.43 533.09 627.60 534.92 613.00 534.00
C 613.42 534.73 615.39 535.85 616.00 536.00
C 620.93 537.19 629.97 536.77 635.00 536.00
C 642.04 534.01 649.78 532.01 656.00 528.00
C 658.33 526.50 666.17 520.34 667.00 518.00
C 667.00 506.00 667.00 494.00 667.00 482.00
C 667.07 481.74 664.41 486.30 664.00 487.00 Z" data-index="93"></path>
</g>
<g fill="#01452E" fill-opacity="1.00" stroke="None">
<path d="
M 583.00 513.00 
C 586.57 519.81 593.13 527.58 601.00 530.00
C 591.85 523.14 597.76 510.36 594.00 502.00
C 595.26 499.43 599.67 502.50 601.00 500.00
C 594.87 495.82 585.29 490.66 583.00 483.00
C 583.00 493.00 583.00 503.00 583.00 513.00 Z" data-index="94"></path>
</g>
<g fill="#2F7609" fill-opacity="1.00" stroke="None">
<path d="
M 592.00 557.00 
C 591.49 555.89 591.49 550.95 590.00 549.00
C 596.28 549.09 593.64 534.70 594.00 529.00
C 594.94 529.57 595.82 530.15 597.00 530.00
C 592.70 527.26 584.74 521.15 583.00 516.00
C 583.00 531.19 582.90 544.77 592.00 557.00 Z" data-index="95"></path>
</g>
<g fill="#266C14" fill-opacity="1.00" stroke="None">
<path d="
M 656.00 528.00 
C 657.28 527.75 658.44 526.37 660.00 527.00
C 661.11 533.89 660.49 541.85 663.00 548.00
C 663.50 546.82 664.62 544.97 665.00 544.00
C 666.92 535.47 667.00 527.07 667.00 518.00
C 666.17 520.34 658.33 526.50 656.00 528.00 Z" data-index="96"></path>
</g>
<g fill="#4A9404" fill-opacity="1.00" stroke="None">
<path d="
M 656.00 528.00 
C 649.78 532.01 642.04 534.01 635.00 536.00
C 629.26 537.62 621.66 537.09 616.00 536.00
C 609.55 534.76 602.67 533.62 597.00 530.00
C 595.82 530.15 594.94 529.57 594.00 529.00
C 593.64 534.70 596.28 549.09 590.00 549.00
C 591.49 550.95 591.49 555.89 592.00 557.00
C 609.28 580.24 641.67 573.56 659.00 555.00
C 660.63 552.80 661.94 550.50 663.00 548.00
C 660.49 541.85 661.11 533.89 660.00 527.00
C 658.44 526.37 657.28 527.75 656.00 528.00 Z" data-index="97"></path>
</g>
<g fill="#387927" fill-opacity="1.00" stroke="None">
<path d="
M 635.00 536.00 
C 629.97 536.77 620.93 537.19 616.00 536.00
C 621.66 537.09 629.26 537.62 635.00 536.00 Z" data-index="98"></path>
</g>
<g fill="#C7EAC2" fill-opacity="1.00" stroke="None">
<path d="
M 663.00 548.00 
C 661.94 550.50 660.63 552.80 659.00 555.00
C 662.27 551.50 663.93 548.76 665.00 544.00
C 664.62 544.97 663.50 546.82 663.00 548.00 Z" data-index="99"></path>
</g>
</svg></svg></g></g><defs><clipPath id="SvgjsClipPath1050"><rect width="1000" height="1000" x="0" y="0" rx="350" ry="350"></rect></clipPath></defs></svg>